<?xml version="1.0" encoding="UTF-8"?>
<svg id="Layer_1" data-name="Layer 1" xmlns="http://www.w3.org/2000/svg" viewBox="0 0 144.08 137.93">
  <defs>
    <style>
      .cls-1 {
        font-size: 8.84px;
      }

      .cls-1, .cls-2, .cls-3, .cls-4 {
        fill: #fff;
      }

      .cls-1, .cls-3, .cls-4 {
        font-family: Arial-Black, Arial;
        font-weight: 800;
      }

      .cls-5 {
        fill: #e03a3e;
      }

      .cls-6 {
        fill: #deb407;
      }

      .cls-3 {
        font-size: 8.84px;
      }

      .cls-4 {
        font-size: 8.84px;
      }

      .cls-7 {
        fill: #00529b;
      }

      .cls-8 {
        fill: #231f20;
      }
    </style>
  </defs>
  <path class="cls-6" d="M123.12,116.97c-9.5,.13-11.27-8.88-11.27-8.88-42.17,37.04-79.96-.96-79.96-.96-.51,10.05-9.83,9.74-9.83,9.74l.13,.06s47.87,47.23,100.8,.04"/>
  <g>
    <text class="cls-3" transform="translate(30.98 120.2) rotate(33.81) scale(1 1.05)"><tspan x="0" y="0">J</tspan></text>
    <text class="cls-3" transform="translate(36.2 123.71) rotate(29.04) scale(1 1.05)"><tspan x="0" y="0">U</tspan></text>
    <text class="cls-3" transform="translate(43.02 127.48) rotate(23.48) scale(1 1.05)"><tspan x="0" y="0">N</tspan></text>
    <text class="cls-3" transform="translate(50.11 130.47) rotate(19.11) scale(1 1.05)"><tspan x="0" y="0">I</tspan></text>
    <text class="cls-3" transform="translate(53.69 131.78) rotate(14.44) scale(1 1.05)"><tspan x="0" y="0">O</tspan></text>
    <text class="cls-3" transform="translate(61.32 133.7) rotate(7.87) scale(1 1.05)"><tspan x="0" y="0">R</tspan></text>
    <text class="cls-3" transform="translate(71.81 134.85) rotate(-1.76) scale(1 1.05)"><tspan x="0" y="0">A</tspan></text>
    <text class="cls-4" transform="translate(79.27 134.62) rotate(-9.34) scale(1 1.05)"><tspan x="0" y="0">M</tspan></text>
    <text class="cls-3" transform="translate(88.04 133.09) rotate(-16.65) scale(1 1.05)"><tspan x="0" y="0">V</tspan></text>
    <text class="cls-3" transform="translate(95.06 130.95) rotate(-22.59) scale(1 1.05)"><tspan x="0" y="0">E</tspan></text>
    <text class="cls-3" transform="translate(101.32 128.32) rotate(-27.81) scale(1 1.05)"><tspan x="0" y="0">T</tspan></text>
    <text class="cls-1" transform="translate(107.28 125.15) rotate(-32.51) scale(1 1.05)"><tspan x="0" y="0">S</tspan></text>
  </g>
  <path class="cls-7" d="M103.24,93.32c4.25,0,8.5,0,12.75,0,.29,0,1.35-.09,1.35,0,.42,.61-2.68,4.91-3.16,5.64-3.88,5.75-10.04,11.15-15.91,14.46-4.74,2.67-9.83,4.77-15.35,5.94-10.19,2.15-21.91,.94-30.67-2.87-2.64-1.15-5.27-2.32-7.66-3.98-2.11-1.47-4.31-2.88-6.24-4.7-1.11-1.04-2.28-2.03-3.38-3.17-2.4-2.48-4.35-5.24-6.23-8.01-.45-.67-1.55-2.17-1.65-2.98-.05-.39,1.57-.33,1.92-.33h16.02c15.86,0,31.71,0,47.57,0,3.55,0,7.09,0,10.64,0Z"/>
  <path class="cls-2" d="M91.26,95.77l1.88,5.98h6.36l-5.1,3.85,1.97,6.11-5.1-3.76-5.08,3.76,1.99-6.11-5.17-3.85h6.34l1.92-5.98Z"/>
  <path class="cls-2" d="M72.22,95.77l1.88,5.98h6.36l-5.1,3.85,1.97,6.11-5.1-3.76-5.08,3.76,1.99-6.11-5.17-3.85h6.34l1.92-5.98Z"/>
  <path class="cls-8" d="M78.57,78.59h9.49v2.79h-5.95v2.12h5.54v2.68h-5.54v2.59h6.13v2.97h-9.67v-13.15Z"/>
  <path class="cls-5" d="M123.09,76.83H21.79c-.14,0-.45,.07-.45-.11h-.11c-.11-1.28-.21-2.56-.32-3.85-.21-3.4-.13-7.16,.36-10.39,1.37-9.12,5.32-18.38,11.16-25.49,6.36-7.74,14.81-13.92,24.54-16.57,4.08-1.11,8.25-1.88,12.44-2.16,4.75-.32,9.53-.02,14.22,1.11,3.53,.85,7.03,2.08,10.33,3.61,12.96,5.99,23.1,17.76,27.29,31.26,1.15,3.71,1.87,7.46,2.2,11.63,.13,1.66,.38,3.8,.15,5.55-.02,.56-.05,1.12-.07,1.68-.11,1.17-.21,2.34-.31,3.51,0,.15-.03,.23-.12,.23"/>
  <path class="cls-7" d="M58.59,34.44c-1.06,.28-2.03,1.23-2.64,2.05-.82,1.1-1.27,2.47-1.84,3.71-.83,1.73-1.66,3.47-2.49,5.2-2.89,6.18-5.78,12.36-8.68,18.53-1.47,3.07-2.93,6.14-4.4,9.2-.12,.27-.48,.91-.29,1.21v-.11c1.93-1.13,3.34-3.21,4.45-5.05,.73-1.21,1.54-2.42,2.19-3.66,.25-.49,1.21-2.52,1.59-2.76,.51-.33,1.71-.16,2.37-.16-.58,1.25-1.17,2.5-1.76,3.75-1.09,2.24-2.13,4.49-3.21,6.75-.06,.12-.66,1.25-.34,1.25v-.11c2.45-1,5.41-6.38,6.59-8.62,.36-.7,1.06-2.42,1.68-2.85,.27-.19,1.84-.28,2.22-.28v.11h.11c-.3,1.3-1.16,2.6-1.74,3.76-1.07,2.25-2.14,4.5-3.21,6.75-.07,.13-.67,1.24-.36,1.24v-.11c.91-.37,1.65-1.25,2.29-2,1.96-2.29,3.23-4.89,4.76-7.41,.27-.45,.77-1.8,1.18-2.06,.31-.21,1.85-.28,2.26-.28v.11h.11c-.24,1-.84,1.97-1.28,2.86-1.04,2.17-2.08,4.34-3.12,6.51-.26,.56-1.12,1.91-1.12,2.49h.23v-.11c1.02-.28,1.84-1.21,2.52-2,1.22-1.44,2.25-2.98,3.18-4.59,1.05-1.83,2.24-5.1,4.28-6.1,.68-.33,1.63-.48,2.43-.29,4.22,.98,4.74,9.73,4.74,13.66,.35-.01,1.17,.08,1.38-.18,.21-.28,.29-2.64,.33-3.21,.25-3.29,1.03-10.14,5.17-10.27,1.23-.04,2.22,.47,2.99,1.27,1.08,1.12,1.65,2.57,2.36,3.88,1.28,2.39,2.74,4.86,4.78,6.83,.46,.45,1.28,1.22,1.95,1.22-1.37-2.89-2.74-5.78-4.11-8.68-.29-.58-1.42-2.57-1.42-3.18h.23v-.11c.6,.14,1.64-.05,2.14,.28,.41,.26,1.61,2.84,1.87,3.36,.67,1.31,4.8,8.11,6.36,8.11v.11h.11c-.26-.99-.86-1.93-1.3-2.85-.96-2.06-1.92-4.12-2.89-6.18-.3-.71-.98-1.59-1.04-2.4,.02-.08,.04-.16,.06-.24,.18-.02,.37-.05,.55-.07,.14,0,.29-.01,.44-.02,.37-.02,.98,.05,1.2,.29,.84,.95,1.31,2.33,1.91,3.43,1.49,2.7,3.2,5.56,5.69,7.62,.16,.13,.69,.35,.69,.55h.11c-.39-1.14-.99-2.21-1.54-3.3-.88-1.87-1.76-3.75-2.64-5.62-.37-.82-.87-1.64-1.15-2.51,0-.08,0-.16-.01-.24,.02-.04,.04-.07,.06-.11,.29-.03,.59-.05,.88-.08,.38,0,1.04-.03,1.28,.18,.65,.57,1.47,2.51,1.88,3.31,1.28,2.52,3.67,6.4,6.09,8.02,.12,.08,.23,.08,.23,.24,.11-.19,.1-.43,.03-.64-1.68-3.49-3.37-6.97-5.05-10.46-3.2-6.78-6.4-13.56-9.6-20.33-.51-1.12-1.03-2.23-1.55-3.35-.69-1.57-1.28-3.42-2.79-4.54-.72-.54-1.83-.94-2.83-.71-1.69,.39-2.53,2.04-2.76,3.65-.03,.64-.06,1.27-.09,1.91-.16,1.21-.35,2.33-.81,3.36-.32,.72-.83,1.5-1.55,1.89-.29,.16-1.39,.37-1.51,.6-.34,.64-.1,1.47-.16,2.16-.02,.25-.81-.44-.84-.48-.13-.14-.51-.45-.59-.67-.01-.03-.08-.12-.08-.14-.04,0,.03-.02,0,0,0,.04-.04,.15-.04,.18-.23,.64-.45,1.28-.68,1.92-.4-.2-1.23-1.47-1.58-1.47-.3,0-1.04,2.1-1.14,2.36,0,0-.1,0-.1,0-.17,.04-.71-1.14-.77-1.31-.09-.29-.1-.96-.47-1.05-.15,.28-.43,.47-.62,.72-.18,.24-.29,.53-.51,.74-.08,.08-.09,.11-.23,.11-.23-.64-.45-1.28-.68-1.92h-.11c-.35,.3-.98,1.02-1.47,1.02,0-.58,.17-1.8-.18-2.22-.2-.24-.87-.23-1.17-.31-1.01-.27-1.83-.98-2.3-1.92-.48-.96-.75-2.19-.84-3.35-.1-1.27-.11-2.57-.54-3.79-.49-1.39-1.59-2.01-3.04-2.08-.24-.01-.48,.02-.71,.08Z"/>
  <path class="cls-2" d="M70.47,35.54s-.07,.05-.1,.07c-.43,.38-.54,1-1.02,1.34-1.07,.77-2.74,.31-3.6,1.42-.12,.15-.22,.33-.3,.5-.04,.08-.26,.44-.22,.52,.05,.12,.44,.04,.55,.04,.31,0,.62,0,.92,0,.56,0,1.13,.04,1.67,.21,1.97,.62,.33,3.69-.05,4.86-.13,.42-.19,.86-.2,1.31,0,.1,0,1.09,.05,1.09h.11c.24-.31,.59-.56,1.01-.56,.13,.35,.27,.7,.41,1.05,.06,.15,.01,.66,.25,.54,.12-.06,.27-.38,.32-.49,.08-.15,.18-.3,.29-.44,.04-.05,.69-.74,.77-.56,.1,.22,.81,2.11,1.01,2.03,0-.22,.19-.47,.27-.67,.1-.23,.21-.45,.33-.67,.11-.2,.23-.4,.38-.57,.02-.02,.34-.32,.38-.24,.23,.55,.82,.89,1.03,1.46,.03,.02,.06,.02,.09,0,0-.16,.54-1.96,.66-1.96,.19,0,.44,.34,.58,.46,.13,.11,.28,.21,.4,.33,.05,.06,.1,.12,.15,.18,.03,.03,.12,.13,.11,.17,.03-.02,.02-.06,.03-.09,.01-.14-.01-.29-.02-.43,0-.15-.02-.3-.04-.45-.03-.29-.06-.58-.1-.88-.08-.56-.17-1.12-.26-1.68-.05-.32-.1-.63-.14-.95-.17-1.33-.32-2.64-.6-3.95-.28-1.32-.64-2.57-2.1-2.94-.65-.16-2.34-.49-3.03-.06Z"/>
  <path class="cls-7" d="M65.16,63.7c-.1,.02-.19,.06-.28,.1-.95,.45-1.51,1.57-1.86,2.5-.82,2.19-.96,4.61-1.25,6.92-.03,.19-.17,1.58-.04,1.58v.11c2.29,0,4.45,.11,6.77,.11,.18,0,.68,.08,.68-.11h.11c-.11-3.26,.09-7.77-1.97-10.52-.44-.59-1.43-.86-2.16-.68Z"/>
  <path class="cls-7" d="M78.01,63.66c-1.36,.33-2.03,2.12-2.35,3.28-.48,1.77-.67,3.58-.77,5.4-.01,.2-.12,2.69-.08,2.69,.96,0,7.21,.11,7.4-.22,.27-.48,.04-1.64-.03-2.16-.32-2.41-.36-5.07-1.54-7.25-.41-.75-1.07-1.71-2.01-1.78-.22-.02-.42,0-.62,.05Z"/>
  <path class="cls-6" d="M54.62,0c.5,.34,.3,1.41,.24,1.92-.43,3.91-2.55,7.7-6.11,9.48-.15,.07-.67,.29-.67,.46,0,.01,1.76-.23,1.9-.24,1.49-.07,3.07,.08,4.5,.55,1.34,.44,2.64,1.12,3.74,2.01,.61,.49,1.19,1.05,1.69,1.65,.25,.29,.81,.71,.81,1.12h-.11c-.91,.49-2.18,.69-3.27,.8-4.04,.38-7.31-.53-9.95-3.26-.47-.49-1.12-1.21-1.34-1.87-.26-.79-.12-2.19-.01-3.02,.48-3.81,2.98-6.93,6.34-8.58,.63-.31,1.49-.9,2.26-.9v-.11Z"/>
  <path class="cls-6" d="M88.91,0c.92,.22,1.8,.66,2.61,1.09,3.3,1.73,5.94,4.73,6.35,8.62,.09,.87,.29,2.16-.05,3-.34,.84-1.16,1.63-1.83,2.29-2.98,2.88-6.83,3.26-11.03,2.52-.4-.07-1.8-.4-1.8-.9,.57-.59,1.15-1.18,1.72-1.77,1.2-1.09,2.65-1.95,4.16-2.51,.45-.17,.92-.29,1.4-.38,.33-.06,.66-.04,.99-.11,.57-.12,1.09-.17,1.67-.13,.93,.06,1.86,.27,2.8,.27-.88-.72-2.01-1.21-2.89-1.97-2.85-2.45-4.1-6.07-4.1-10.01Z"/>
  <path class="cls-6" d="M43,3.84c.27,.8,.21,1.98,.13,2.82-.24,2.58-1.05,5.24-2.78,7.22-.53,.61-1.15,1.13-1.78,1.64-.34,.27-.69,.61-1.11,.75-.01,.03-.01,.06,0,.09,.94-.03,1.91-.34,2.85-.44,2.27-.23,4.68,.35,6.66,1.45,.54,.3,1.05,.64,1.54,1.02,.3,.23,1.66,1.6,1.91,1.6v.34c-2.08,.64-4.17,1.57-6.66,1.45-2.77-.13-4.95-1.03-6.92-2.77-.47-.41-1.16-.99-1.43-1.57-.29-.59-.32-1.47-.33-2.2-.05-3.22,.99-5.72,2.92-7.92,1.41-1.61,3.3-2.37,4.98-3.49Z"/>
  <path class="cls-6" d="M100.76,4.07c.97,.16,1.8,.76,2.59,1.24,3.36,2.05,5.4,5.27,5.53,9.37,.06,1.9-.05,2.86-1.4,4.13-2.79,2.63-6.64,3.52-10.66,2.72-.71-.22-1.43-.44-2.14-.66-.38-.14-.75-.28-1.14-.42-.08-.22-.1-.28,.05-.46,.46-.55,1.08-.99,1.64-1.44,2.37-1.89,5.4-2.74,8.77-2.53,.91,.06,1.76,.47,2.62,.47-.72-.77-1.76-1.29-2.55-2.08-1.96-1.96-2.91-4.39-3.27-7.2-.01-1.05-.02-2.1-.04-3.16Z"/>
  <path class="cls-6" d="M62.19,5.63c.55-.07,1.12-.09,1.69-.07,1.09,.04,2.17,.2,3.22,.48,.11,.03,2.32,.75,2.08,.97-.69,.62-1.37,1.25-2.07,1.88-1.7,1.41-3.71,2.34-5.95,2.71-1.95,.32-5.15-.15-6.61-1.25-.04-.03-.14-.16-.2-.28-.04-.08-.1-.17,0-.17,.27-.5,.72-.87,1.15-1.23,1.94-1.61,4.22-2.74,6.7-3.04Z"/>
  <path class="cls-6" d="M78.88,5.57c.89-.1,1.82,.01,2.69,.11,.98,.11,1.96,.33,2.89,.66,.52,.19,1.03,.42,1.52,.68,.63,.34,1.33,.76,1.87,1.24,.39,.35,.77,.7,1.16,1.05,.16,.15,.32,.3,.49,.44,.03,.03,.21,.15,.21,.19,0,.07-.01,.08-.01,.15-.04,0-.06,.08-.1,.08-.66,.53-1.56,.79-2.35,1.06-4.17,1.39-8.17-.42-11.1-2.94-.31-.27-1.43-1.19-1.43-1.62,1.22-.37,2.43-.74,3.68-1.02,.16-.04,.33-.06,.5-.08Z"/>
  <path class="cls-6" d="M28.67,25.31c.97-.66,1.97-1.3,3.05-1.76,1.1-.47,2.29-.5,3.44-.75,1.14-.25,2.33-.06,3.45,.17,.94,.2,1.95,.41,2.81,.84,.1,.05,.69,.36,.44,.36-2.93,3.52-7.85,5.48-12.53,4.08-.8-.24-1.79-.51-2.41-1.09-.69-.65-1.12-1.76-1.47-2.62-1.22-3.05-.52-6.9,.96-9.52,.6-1.08,1.45-2.09,2.25-3.06,.75,.24,.93,1.18,1.2,1.82,1.48,3.62,.85,7.85-1.03,10.98"/>
  <path class="cls-6" d="M115.65,25.54c-2.09-2.57-2.83-6.54-2-10.05,.29-1.25,.9-2.34,1.32-3.51,.72,.35,1.2,1.17,1.63,1.77,2.16,2.99,3.54,7.44,1.79,11.25-.35,.74-.65,1.58-1.23,2.19-.74,.77-2.02,1.06-3.01,1.35-2.86,.83-6.13,.04-8.44-1.29-1.23-.71-2.63-1.66-3.55-2.88-.04-.06-.28-.29-.06-.29,.07,0,.23-.14,.29-.17,.12-.06,.25-.12,.38-.17,.27-.11,.56-.21,.84-.3,.61-.19,1.24-.34,1.87-.42,.71-.1,1.42-.18,2.13-.18,2.07,.01,4.02,.46,5.85,1.45,.48,.26,.96,.56,1.42,.86"/>
  <path class="cls-6" d="M20.44,33.67c2.1-1.58,4.22-3.12,7.11-3.16,2.04-.04,4.07,.06,5.71,.76,.04,.01,.54,.26,.26,.26-2.72,3.64-7.38,6.23-12.2,5.03-.83-.21-1.91-.41-2.56-.99-.78-.7-1.39-1.93-1.72-2.91-1.64-4.76-.35-8.6,2.38-12.32,1.58,.51,2.49,5.09,2.57,6.78,.04,.83-.06,1.84-.26,2.58-.19,.67-.37,1.35-.56,2.03"/>
  <path class="cls-6" d="M123.88,34.12c-.33-.72-.66-1.44-.99-2.16-.86-2.4-1.17-5.31-.37-7.9,.26-.64,.52-1.28,.78-1.92,.27-.54,.65-1.07,.8-1.69,.79,.22,1.21,1.18,1.6,1.79,2.13,3.29,2.76,7.93,.81,11.57-.32,.59-.69,1.48-1.25,1.91-.92,.7-2.91,1.15-4.21,1.24-2.16,.13-4.41-.38-6.07-1.39-.87-.53-4.42-2.96-4.42-4.15,0-.08,.74-.3,.84-.33,1.05-.34,2.11-.34,3.2-.47,1.85-.23,3.87,.28,5.56,1.02,.49,.21,.97,.47,1.42,.75,.49,.31,.96,.66,1.41,1.03"/>
  <path class="cls-6" d="M14.12,43.5v-.11h.11c1.56-2.35,5.23-4.29,8.12-4.29,1.07-.48,3.55,.23,4.62,.23v.11c-.46,.63-.93,1.26-1.39,1.89-1.43,1.72-3.08,3.39-5.18,4.14-1.92,.69-5.83,1.15-7.7-.01-1.83-1.14-3.12-4.46-3.39-6.59-.12-.9,0-2.05,.1-2.93,.24-2.13,1.3-3.77,2-5.65,.73,.17,1.25,1.1,1.58,1.69,1.35,2.44,2.17,5.03,1.83,8.14"/>
  <path class="cls-6" d="M130.2,43.95c-1.83-4.51-1.32-9.98,2.14-13.45,1,.54,1.85,3.64,2.11,4.75,.81,3.51-.22,6.85-2.21,9.38-.28,.35-.64,.86-1.06,1.06-.73,.32-1.58,.44-2.45,.54-4.13,.46-7.47-1.35-9.97-4.28-.38-.45-1.65-1.94-1.65-2.52,.61-.06,1.21-.15,1.82-.2,.58-.05,1.16-.16,1.74-.11,1.97,.16,3.99,.53,5.72,1.54,.46,.27,.92,.58,1.33,.91,.29,.23,2.36,2.27,2.36,2.27"/>
  <path class="cls-6" d="M12.77,53.82c1.03-2.27,2.74-3.86,4.89-5.07,.73-.41,1.48-.76,2.27-1.03,.17-.06,2.09-.46,2.09-.38-.48,4.91-3.14,9.1-7.88,10.56-.8,.24-2,.62-2.94,.44-.93-.18-1.88-.8-2.63-1.37-2.99-2.25-4.37-5.55-4.37-9.52,0-.89-.04-2.02,.34-2.71,.17-.31,3.86,2.96,4.15,3.29,1.15,1.3,2.03,2.93,2.51,4.6,.32,1.11,.35,2.25,.46,3.4"/>
  <path class="cls-6" d="M132.34,56.27c0-1.29,.17-2.59,.57-3.82,.38-1.14,.9-2.25,1.57-3.24,.42-.61,.88-1.28,1.41-1.8,.52-.51,1.16-.93,1.74-1.37,.54-.41,1.26-.65,1.7-1.18,.42,.39,.39,1,.48,1.57,.51,3.42-.74,6.83-2.69,9.19-.95,1.14-2.99,2.69-4.46,2.94-.71,.12-1.74-.14-2.37-.34-2.81-.86-4.66-2.17-6.33-4.65-.54-.79-2.4-4.88-1.84-5.88,.05-.09,.3-.08,.39-.08,.68,.03,1.35,.3,1.92,.5,3.11,1.06,5.73,3.4,7.04,6.42"/>
  <path class="cls-6" d="M10.18,65.76c.86-2.3,2.38-4.06,4.33-5.65,.63-.52,1.38-.91,2.11-1.25,.42-.19,1.52-.82,2-.66,.2,1.64-.27,3.63-.86,5.15-.59,1.51-1.4,2.96-2.58,4.09-.65,.63-1.42,1.23-2.2,1.7-.87,.52-2.58,1.26-3.71,1.19-.9-.06-1.66-.52-2.41-.88-4.53-2.15-5.94-6.71-5.94-11.83,3.82,1.23,6.91,4.41,8.02,8.24,.2,.69,.44,1.6,.44,2.38"/>
  <path class="cls-6" d="M134.6,68.47c.35-3.79,2.22-6.96,5.31-9.08,.87-.6,1.97-.91,2.82-1.54,.66,.33,.43,1.5,.36,2.15-.38,3.46-1.48,6.43-4.18,8.59-1.02,.82-2.84,1.83-4.2,1.95-.95,.08-2.14-.48-2.92-.82-3.42-1.51-5.72-4.88-6.26-8.59-.09-.64-.55-1.86-.13-2.49,.21-.33,1.59,.31,1.78,.4,3.27,1.52,5.61,3.68,6.73,7.17"/>
  <path class="cls-6" d="M9.72,79.77c0-3.53,1.72-6.95,4.44-8.98,1-.75,2.09-1.32,3.12-1.98,.6,.28,.45,1.17,.45,1.81,0,3.56-.96,6.75-3.55,8.97-1.16,.99-2.69,2.05-4.24,2.26-.83,.11-1.86-.28-2.58-.51-3.67-1.23-6.15-4.54-7.02-8.23-.1-.42-.51-2.19-.25-2.6,.06-.11,.39-.08,.49-.07,.82,.11,1.59,.49,2.28,.82,2.86,1.32,5.01,3.73,6.18,6.6"/>
  <path class="cls-6" d="M134.31,79.9c.38-4.12,4.3-7.55,7.93-8.89,.52-.19,1.24-.51,1.83-.51-.31,4.85-2.67,9.47-7.33,10.97-.72,.23-1.65,.62-2.48,.58-.92-.05-1.86-.59-2.62-1-3.68-1.98-5.29-5.86-5.49-10.1,.03-.68,.07-1.35,.1-2.03,2.38,.77,4.77,2.71,6.14,4.89,.36,.56,.61,1.22,.92,1.79,.55,.99,.9,2.47,.93,3.71"/>
  <path class="cls-6" d="M13.78,90.95c-.14-.88-.4-1.76-.44-2.72-.13-2.71,.61-5.26,1.99-7.25,.69-1,1.61-1.85,2.39-2.81,1.39,.57,1.82,5.92,1.52,7.54-.45,2.44-1.33,4.29-3.07,6.04-.42,.42-.9,.89-1.43,1.13-.76,.34-1.9,.24-2.78,.21-4.46-.14-7.17-2.48-9.38-5.97-.26-.41-.95-1.46-.81-2.01,.06-.29,.79-.26,1.06-.27,4.08-.07,7.65,1.8,10.01,4.87"/>
  <path class="cls-6" d="M131.03,89.97c.47-.54,.94-1.09,1.41-1.63,1.22-1.15,2.71-1.99,4.28-2.58,.48-.18,.98-.31,1.48-.38,.86-.11,1.72-.16,2.58-.27,.5-.07,.99-.06,1.49-.03,0,.01,.1,0,.1,.01,0,.02,0,.04,0,.05,.04,0-.03,.04,0,.06-.12,.84-.73,1.62-1.13,2.35-1.96,3.49-5.06,5.4-9.13,5.79-.88,.08-2.09,.08-2.88-.25-.65-.27-1.24-.91-1.77-1.44-3.43-3.44-3.54-9.05-1.55-13.36,.49,.24,.92,.75,1.32,1.16,1.91,1.97,3.32,4.65,3.37,7.54,0,.73-.01,1.58-.08,2.26-.06,.43-.11,.87-.17,1.31"/>
  <path class="cls-6" d="M21.34,88.36c.75,.31,1.03,1.55,1.26,2.25,1.22,3.88,1.04,7.97-1.5,11.06-.74,.89-1.46,1.7-2.59,1.98-3.95,.96-7.56-.89-10.19-3.28-.83-.76-1.45-1.74-1.99-2.72-.15-.27-.28-.55-.44-.82-.04-.08-.08-.2-.14-.25,.22-.08,.41-.2,.63-.28,.61-.21,1.25-.09,1.88-.09,2.9,0,5.58,1,7.63,2.7,.29,.24,2.52,2.67,2.52,2.67-.98-2.74-1.01-6.36,.12-9.04,.64-1.53,1.7-2.9,2.81-4.18Z"/>
  <path class="cls-6" d="M122.19,88.47c.72,.23,1.18,1.01,1.6,1.56,1.97,2.63,3.13,6.43,2.17,10.06-.05,.16-.45,1.49-.16,1.49,.35-.99,1.23-1.74,2.02-2.37,1.22-.97,2.66-1.81,4.15-2.27,.44-.13,.89-.24,1.35-.31,.48-.07,.96-.1,1.44-.16,.52-.06,1.02-.15,1.54-.13,.37,.02,.75,.04,1.12,.06,.1,0,.75-.02,.78,.09,.07,.29-.25,.8-.39,1.05-.19,.34-.41,.65-.63,.97-2.3,3.32-5.57,5.61-9.91,5.54-1.63-.03-2.74-.24-3.81-1.38-2.54-2.7-3.58-6.72-2.59-10.58,.33-1.28,1.02-2.38,1.32-3.62Z"/>
  <path class="cls-6" d="M25.85,97.73c.77,.27,1.27,1.49,1.56,2.15,.69,1.57,1.31,3.12,1.46,4.97,.22,2.73-.82,5.77-2.6,7.87-.43,.51-1.22,.58-1.83,.72-.77,.17-1.52,.35-2.31,.41-2.14,.17-4.44-.52-6.05-1.49-1.62-.98-3.58-2.59-4.6-4.27-.62-1,2.07-.85,2.56-.92,3.38-.5,6.75,.69,9.38,2.83,.22,.18,.98,.67,.98,.96h.11c-.32-.92-.78-1.83-.98-2.83-.8-3.98,.31-7.36,2.33-10.38Z"/>
  <path class="cls-6" d="M121.05,109.7c1.5-1.2,3.77-2.25,5.88-2.25,.27-.14,.78-.11,1.13-.11,.88-.01,1.83,0,2.61,.17,.6,.13,1.2,.26,1.79,.39,0,.15-.04,.11,.11,.11,0,.15,.04,.11-.11,.11-2.61,3.65-6.38,6.15-11.17,5.77-1.1-.09-2.43-.29-3.32-.8-.66-.38-1.21-1.4-1.56-2.02-2.38-4.11-1.46-9.72,1.39-13.24,.52,.28,.86,.97,1.12,1.47,.99,1.88,1.66,3.97,1.67,6.11,0,.66-.04,1.33-.13,1.99-.12,.86-.42,1.68-.66,2.51-.14,.34-.28,.69-.42,1.03"/>
  <path class="cls-8" d="M39.2,89.57h-4.58l-.66,2.18h-4.14l4.91-13.15h4.46l4.91,13.15h-4.25l-.65-2.18Zm-.86-2.85l-1.43-4.72-1.43,4.72h2.86Z"/>
  <path class="cls-8" d="M45.76,78.59h5.76l2.21,8.01,2.21-8.01h5.74v13.15h-3.58v-10.02l-2.77,10.02h-3.23l-2.76-10.02v10.02h-3.58v-13.15Z"/>
  <path class="cls-8" d="M63.52,78.59h3.99l2.78,9.46,2.75-9.46h3.88l-4.59,13.15h-4.14l-4.66-13.15Z"/>
  <path class="cls-8" d="M89.67,81.83m4.14,0,4.05,0v9.92h-4.05v-9.92m5.16,0,0,0-9.3,0v-3.24h12.34v3.24"/>
  <path class="cls-8" d="M102.36,87.4l3.85-.24c.08,.63,.26,1.11,.52,1.44,.42,.53,1.02,.8,1.8,.8,.58,0,1.03-.14,1.35-.41,.32-.27,.47-.59,.47-.95,0-.34-.15-.65-.45-.92-.3-.27-1-.53-2.08-.77-1.78-.4-3.05-.93-3.81-1.6-.76-.66-1.15-1.51-1.15-2.54,0-.68,.2-1.32,.59-1.92,.39-.6,.98-1.07,1.76-1.42,.79-.34,1.86-.52,3.23-.52,1.68,0,2.96,.31,3.84,.94,.88,.62,1.41,1.62,1.57,2.98l-3.82,.23c-.1-.6-.31-1.03-.64-1.3-.33-.27-.77-.41-1.35-.41-.47,0-.83,.1-1.06,.3-.24,.2-.36,.45-.36,.73,0,.21,.1,.4,.29,.57,.19,.17,.64,.34,1.36,.49,1.77,.38,3.05,.77,3.81,1.17,.77,.39,1.33,.88,1.68,1.46,.35,.58,.52,1.23,.52,1.95,0,.85-.23,1.63-.7,2.34-.47,.71-1.12,1.25-1.95,1.62-.84,.37-1.89,.55-3.17,.55-2.24,0-3.79-.43-4.65-1.29-.86-.86-1.35-1.96-1.46-3.29Z"/>
  <path class="cls-2" d="M53.04,95.74l1.88,5.98h6.36l-5.1,3.85,1.97,6.11-5.1-3.76-5.08,3.76,1.99-6.11-5.17-3.85h6.34l1.92-5.98Z"/>
  <path class="cls-2" d="M31.95,66.34l-.19,2.64,1.22,.47-.17,2.39-7.34-3.38,.19-2.57,7.75-2.28-.18,2.45-1.27,.29Zm-1.66,.38l-2.77,.62,2.65,1.02,.12-1.65Z"/>
  <path class="cls-2" d="M26.22,60.91l.85-2.97,4.75,.13-4.09-2.41,.85-2.95,7.27,2.09-.53,1.84-5.55-1.6,5.14,3.03-.48,1.66-5.96-.17,5.55,1.6-.53,1.84-7.27-2.09Z"/>
  <path class="cls-2" d="M29.76,50.07l2.92-5.56,1.43,.75-1.82,3.48,1.07,.56,1.69-3.23,1.37,.72-1.69,3.23,1.31,.69,1.88-3.58,1.52,.8-2.97,5.67-6.7-3.52Z"/>
  <path class="cls-2" d="M40.09,46.92l-5.93-4.71,2.42-3.06c.45-.57,.84-.96,1.18-1.18,.33-.22,.71-.32,1.11-.3,.41,.02,.8,.19,1.18,.49,.33,.26,.56,.56,.68,.89,.13,.33,.17,.68,.12,1.04-.03,.23-.12,.51-.28,.83,.25-.16,.45-.26,.6-.3,.1-.03,.28-.04,.54-.05,.26,0,.45,.01,.57,.04l2.42,.47-1.64,2.07-2.59-.46c-.33-.06-.57-.07-.72-.03-.2,.06-.36,.17-.49,.34l-.13,.16,2.4,1.91-1.46,1.84Zm-2.06-4.64l.61-.77c.07-.08,.17-.27,.3-.55,.07-.14,.09-.29,.05-.44-.04-.16-.12-.29-.25-.39-.19-.15-.39-.21-.59-.17-.2,.04-.43,.23-.7,.56l-.64,.81,1.21,.96Z"/>
  <path class="cls-2" d="M40.27,35.08l1.72-1.6,5.16,5.54-1.72,1.61-5.16-5.54Z"/>
  <path class="cls-2" d="M50.76,32.45l2.05-.65c.21,.55,.3,1.08,.27,1.56-.03,.49-.17,.93-.42,1.34-.25,.41-.66,.81-1.22,1.19-.68,.46-1.3,.74-1.87,.84-.57,.1-1.17,0-1.83-.29-.65-.29-1.24-.82-1.77-1.6-.7-1.04-.97-2.02-.8-2.95,.17-.93,.76-1.74,1.77-2.43,.79-.54,1.52-.8,2.18-.79,.67,.01,1.34,.28,2,.79l-1.45,1.55c-.19-.15-.35-.25-.47-.3-.21-.08-.42-.1-.63-.08-.21,.03-.41,.1-.6,.23-.44,.3-.65,.7-.64,1.21,0,.38,.19,.85,.57,1.41,.47,.69,.9,1.1,1.28,1.21,.38,.12,.77,.04,1.15-.21,.37-.25,.58-.54,.62-.88,.05-.34-.02-.73-.2-1.18Z"/>
  <path class="cls-2" d="M58.94,30.49l-2.45,1,.12,1.3-2.21,.91-.25-8.09,2.38-.98,5.49,5.93-2.27,.93-.82-1.01Zm-1.08-1.32l-1.79-2.21,.27,2.84,1.53-.63Z"/>
  <path class="cls-2" d="M61.36,22.99l2.16-.37,3.52,3.65-.71-4.13,2.17-.37,1.28,7.47-2.17,.37-3.5-3.63,.7,4.11-2.17,.37-1.28-7.47Z"/>
  <path class="cls-2" d="M75.15,21.61l2.42,.35,.91,5.64,2.44-5.16,2.35,.34-3.86,7.1-2.51-.36-1.75-7.91Z"/>
  <path class="cls-2" d="M85.36,23.43l5.89,2.15-.55,1.52-3.68-1.34-.41,1.13,3.42,1.25-.53,1.45-3.42-1.25-.51,1.4,3.8,1.38-.59,1.62-6-2.19,2.59-7.12Z"/>
  <path class="cls-2" d="M93.27,26.51l6.07,3.68-.97,1.6-2.04-1.23-2.95,4.88-2-1.21,2.95-4.88-2.04-1.23,.97-1.6Z"/>
  <path class="cls-2" d="M100.85,31.27l4.66,4.2-1.08,1.2-2.91-2.63-.81,.9,2.71,2.44-1.03,1.15-2.71-2.44-.99,1.1,3,2.71-1.15,1.28-4.75-4.28,5.06-5.63Z"/>
  <path class="cls-2" d="M101.34,42.07l6.03-4.57,2.35,3.11c.44,.58,.72,1.06,.85,1.44,.13,.38,.13,.76,0,1.15-.13,.39-.38,.73-.77,1.02-.33,.25-.68,.4-1.03,.44-.35,.04-.7,0-1.04-.14-.22-.09-.46-.25-.73-.48,.09,.28,.14,.5,.15,.65,0,.11-.03,.29-.09,.54-.06,.25-.12,.43-.18,.55l-1.06,2.23-1.59-2.11,1.09-2.4c.14-.31,.21-.54,.21-.69,0-.21-.08-.39-.21-.56l-.12-.16-2.45,1.85-1.42-1.88Zm5-.84l.59,.79c.06,.09,.22,.23,.46,.43,.12,.11,.26,.16,.42,.16,.16,0,.31-.05,.44-.15,.19-.15,.3-.32,.31-.53,.01-.2-.11-.47-.37-.82l-.62-.82-1.23,.93Z"/>
  <path class="cls-2" d="M109.65,52.76l-1.16-2.38-1.29,.21-1.05-2.15,8.04-.77,1.13,2.31-5.56,5.87-1.07-2.21,.96-.89Zm1.25-1.16l2.08-1.94-2.81,.45,.72,1.49Z"/>
  <path class="cls-2" d="M117.26,54.44l.56,2.12-3.32,3.83,4.05-1.07,.56,2.13-7.32,1.93-.56-2.13,3.3-3.81-4.02,1.06-.56-2.13,7.32-1.93Z"/>
  <path class="cls-2" d="M114.43,64.24l.3,2.22c-.36,.07-.63,.19-.81,.35-.29,.26-.42,.62-.39,1.06,.02,.33,.12,.58,.29,.75,.17,.17,.36,.25,.56,.23,.2-.01,.36-.11,.51-.29,.14-.18,.26-.59,.35-1.23,.16-1.04,.41-1.8,.76-2.26,.35-.47,.82-.72,1.41-.76,.39-.03,.76,.06,1.12,.26,.36,.2,.66,.52,.89,.96,.23,.44,.37,1.05,.43,1.84,.07,.97-.06,1.72-.38,2.25-.32,.53-.87,.88-1.65,1.03l-.28-2.19c.33-.08,.57-.22,.71-.42,.14-.2,.2-.47,.18-.8-.02-.27-.09-.48-.22-.61-.12-.13-.27-.19-.43-.18-.12,0-.22,.07-.31,.2-.09,.12-.17,.39-.22,.81-.15,1.04-.32,1.79-.51,2.25-.19,.46-.45,.8-.77,1.03-.32,.22-.68,.35-1.1,.38-.49,.03-.94-.07-1.37-.31-.43-.24-.76-.59-1.01-1.06-.25-.47-.39-1.07-.45-1.8-.09-1.29,.1-2.2,.55-2.73,.46-.53,1.07-.86,1.83-.97Z"/>
</svg>