<?xml version="1.0" encoding="UTF-8"?>
<svg id="Layer_1" data-name="Layer 1" xmlns="http://www.w3.org/2000/svg" viewBox="0 0 144.08 136.62">
  <defs>
    <style>
      .cls-1 {
        fill: #fff;
      }

      .cls-2 {
        fill: #231f20;
      }
    </style>
  </defs>
  <path class="cls-2" d="M32.24,123.77s8.94-.11,9.52-10.11c0,0,29.73,19.98,60.75,.23,0,0,1.39,10.45,10.11,9.99,0,0-35.77,28.71-80.38-.12Z"/>
  <g>
    <path class="cls-1" d="M45.35,126.44l-2.34-1.05-.84,1-2.1-.94,5.6-5.8,2.25,1-.59,8.04-2.16-.96,.18-1.29Zm.24-1.69l.38-2.82-1.84,2.16,1.46,.66Z"/>
    <path class="cls-1" d="M55.02,123.24l2.14,.69-1.39,4.3c-.14,.43-.33,.81-.58,1.15-.25,.34-.56,.6-.92,.8-.36,.2-.72,.3-1.05,.32-.47,.03-1-.05-1.58-.24-.34-.11-.7-.25-1.08-.43-.38-.18-.69-.38-.91-.62-.22-.23-.4-.52-.54-.86-.14-.34-.2-.67-.19-.98,.02-.5,.08-.93,.19-1.28l1.39-4.3,2.14,.69-1.42,4.4c-.13,.39-.12,.73,.02,1.02,.14,.29,.39,.49,.77,.61,.37,.12,.69,.1,.98-.05,.28-.15,.49-.42,.61-.83l1.42-4.4Z"/>
    <path class="cls-1" d="M57.78,124.11l2.44,.47,.83,2.53,1.67-2.06,2.42,.46-2.92,3.18,1.71,4.31-2.49-.47-.96-2.66-1.87,2.12-2.48-.47,3.21-3.41-1.57-4Z"/>
    <path class="cls-1" d="M65.91,125.5l2.25,.21-.71,7.55-2.25-.21,.71-7.55Z"/>
    <path class="cls-1" d="M69.53,125.85l2.26,.02-.04,5.71,3.52,.03v1.87s-5.79-.04-5.79-.04l.05-7.58Z"/>
    <path class="cls-1" d="M76.17,125.77l2.25-.18,.6,7.56-2.25,.18-.6-7.56Z"/>
    <path class="cls-1" d="M85.3,130.97l-2.52,.44-.13,1.29-2.27,.4,1.39-7.94,2.42-.43,4.02,6.99-2.33,.41-.58-1.17Zm-.75-1.53l-1.27-2.54-.31,2.82,1.58-.28Z"/>
    <path class="cls-1" d="M89.47,131.37l-2.22-7.25,3.6-1.1c.67-.2,1.19-.3,1.58-.29,.39,.01,.74,.14,1.05,.4,.31,.25,.54,.61,.68,1.08,.12,.4,.15,.77,.07,1.12-.08,.34-.23,.65-.46,.92-.15,.17-.37,.34-.67,.52,.28,.01,.5,.04,.64,.1,.1,.04,.25,.13,.46,.28,.21,.15,.36,.27,.44,.36l1.69,1.78-2.44,.75-1.83-1.86c-.23-.24-.42-.39-.56-.44-.19-.06-.38-.07-.58,0l-.19,.06,.9,2.94-2.17,.66Zm.85-4.98l.91-.28c.1-.03,.28-.12,.54-.27,.13-.07,.23-.18,.28-.33,.05-.15,.06-.3,0-.46-.07-.23-.2-.39-.38-.47-.18-.08-.47-.06-.86,.06l-.95,.29,.45,1.47Z"/>
    <path class="cls-1" d="M93.37,122.29l2.3-1,2.37,1.76,.33-2.93,2.29-.99-.85,5.17,1.27,2.91-2.07,.9-1.27-2.91-4.36-2.91Z"/>
  </g>
  <path class="cls-2" d="M103.24,92.13c4.25,0,8.5,0,12.75,0,.29,0,1.35-.09,1.35,0,.42,.6-2.68,4.85-3.16,5.57-3.88,5.68-10.04,11.01-15.91,14.27-4.74,2.63-9.83,4.71-15.35,5.86-10.19,2.12-21.91,.92-30.67-2.83-2.64-1.14-5.27-2.29-7.66-3.92-2.11-1.45-4.31-2.84-6.24-4.64-1.11-1.03-2.28-2-3.38-3.13-2.4-2.45-4.35-5.17-6.23-7.91-.45-.66-1.55-2.15-1.65-2.94-.05-.38,1.57-.33,1.92-.33h16.02c15.86,0,31.71,0,47.57,0,3.55,0,7.09,0,10.64,0Z"/>
  <path class="cls-1" d="M91.26,94.54l1.88,5.9h6.36l-5.1,3.8,1.97,6.04-5.1-3.71-5.08,3.71,1.99-6.04-5.17-3.81h6.34l1.92-5.9Z"/>
  <path class="cls-1" d="M72.22,94.54l1.88,5.9h6.36l-5.1,3.8,1.97,6.04-5.1-3.71-5.08,3.71,1.99-6.04-5.17-3.81h6.34l1.92-5.9Z"/>
  <path class="cls-2" d="M78.57,77.59h9.49v2.76h-5.95v2.09h5.54v2.64h-5.54v2.56h6.13v2.93h-9.67v-12.98Z"/>
  <path class="cls-2" d="M123.09,75.85H21.79c-.14,0-.45,.07-.45-.11h-.11c-.11-1.27-.21-2.53-.32-3.8-.21-3.35-.13-7.07,.36-10.25,1.37-9.01,5.32-18.15,11.16-25.17,6.36-7.64,14.81-13.75,24.54-16.36,4.08-1.09,8.25-1.85,12.44-2.13,4.75-.32,9.53-.02,14.22,1.1,3.53,.84,7.03,2.06,10.33,3.56,12.96,5.91,23.1,17.53,27.29,30.86,1.15,3.66,1.87,7.37,2.2,11.48,.13,1.64,.38,3.75,.15,5.48-.02,.55-.05,1.11-.07,1.66-.11,1.15-.21,2.31-.31,3.46,0,.15-.03,.23-.12,.23"/>
  <path class="cls-1" d="M58.59,34c-1.06,.28-2.03,1.21-2.64,2.02-.82,1.09-1.27,2.44-1.84,3.67-.83,1.71-1.66,3.42-2.49,5.13-2.89,6.1-5.78,12.2-8.68,18.3-1.47,3.03-2.93,6.06-4.4,9.09-.12,.26-.48,.9-.29,1.2v-.11c1.93-1.11,3.34-3.17,4.45-4.98,.73-1.19,1.54-2.39,2.19-3.61,.25-.48,1.21-2.49,1.59-2.73,.51-.32,1.71-.16,2.37-.16-.58,1.23-1.17,2.47-1.76,3.7-1.09,2.21-2.13,4.43-3.21,6.67-.06,.12-.66,1.23-.34,1.23v-.11c2.45-.99,5.41-6.3,6.59-8.52,.36-.69,1.06-2.39,1.68-2.81,.27-.19,1.84-.27,2.22-.27v.11h.11c-.3,1.28-1.16,2.57-1.74,3.72-1.07,2.22-2.14,4.44-3.21,6.66-.07,.13-.67,1.22-.36,1.22v-.11c.91-.37,1.65-1.24,2.29-1.98,1.96-2.27,3.23-4.83,4.76-7.32,.27-.45,.77-1.77,1.18-2.04,.31-.2,1.85-.27,2.26-.27v.11h.11c-.24,.98-.84,1.94-1.28,2.82-1.04,2.14-2.08,4.29-3.12,6.43-.26,.56-1.12,1.89-1.12,2.46h.23v-.11c1.02-.28,1.84-1.2,2.52-1.98,1.22-1.42,2.25-2.94,3.18-4.53,1.05-1.8,2.24-5.04,4.28-6.02,.68-.33,1.63-.47,2.43-.29,4.22,.97,4.74,9.61,4.74,13.48,.35-.01,1.17,.08,1.38-.18,.21-.28,.29-2.61,.33-3.17,.25-3.25,1.03-10.01,5.17-10.14,1.23-.04,2.22,.47,2.99,1.26,1.08,1.1,1.65,2.53,2.36,3.83,1.28,2.36,2.74,4.79,4.78,6.75,.46,.44,1.28,1.21,1.95,1.21-1.37-2.86-2.74-5.71-4.11-8.57-.29-.58-1.42-2.53-1.42-3.14h.23v-.11c.6,.14,1.64-.05,2.14,.27,.41,.26,1.61,2.8,1.87,3.32,.67,1.29,4.8,8.01,6.36,8.01v.11h.11c-.26-.98-.86-1.9-1.3-2.81-.96-2.04-1.92-4.07-2.89-6.1-.3-.7-.98-1.57-1.04-2.37,.02-.08,.04-.16,.06-.24,.18-.02,.37-.05,.55-.07,.14,0,.29-.01,.44-.02,.37-.02,.98,.05,1.2,.29,.84,.94,1.31,2.3,1.91,3.38,1.49,2.67,3.2,5.49,5.69,7.52,.16,.13,.69,.34,.69,.54h.11c-.39-1.12-.99-2.18-1.54-3.26-.88-1.85-1.76-3.7-2.64-5.55-.37-.81-.87-1.62-1.15-2.48,0-.08,0-.16-.01-.24,.02-.03,.04-.07,.06-.1,.29-.03,.59-.05,.88-.08,.38,0,1.04-.03,1.28,.18,.65,.56,1.47,2.48,1.88,3.27,1.28,2.49,3.67,6.32,6.09,7.92,.12,.08,.23,.07,.23,.23,.11-.18,.1-.43,.03-.64-1.68-3.44-3.37-6.88-5.05-10.32-3.2-6.69-6.4-13.38-9.6-20.07-.51-1.1-1.03-2.2-1.55-3.3-.69-1.55-1.28-3.38-2.79-4.48-.72-.53-1.83-.93-2.83-.7-1.69,.38-2.53,2.01-2.76,3.61-.03,.63-.06,1.25-.09,1.88-.16,1.19-.35,2.3-.81,3.32-.32,.71-.83,1.48-1.55,1.87-.29,.15-1.39,.37-1.51,.59-.34,.64-.1,1.45-.16,2.13-.02,.25-.81-.44-.84-.47-.13-.14-.51-.44-.59-.66-.01-.03-.08-.12-.08-.14-.04,0,.03-.02,0,0,0,.04-.04,.15-.04,.18-.23,.63-.45,1.27-.68,1.9-.4-.2-1.23-1.45-1.58-1.45-.3,0-1.04,2.08-1.14,2.33,0,0-.1,0-.1,0-.16,.04-.71-1.13-.77-1.29-.09-.29-.1-.95-.47-1.04-.15,.27-.43,.47-.62,.71-.18,.24-.29,.52-.51,.73-.08,.08-.09,.11-.23,.11-.23-.63-.45-1.26-.68-1.9h-.11c-.35,.3-.98,1-1.47,1,0-.57,.17-1.78-.18-2.19-.2-.24-.87-.23-1.17-.3-1.01-.27-1.83-.97-2.3-1.9-.48-.94-.75-2.16-.84-3.31-.1-1.26-.11-2.54-.54-3.74-.49-1.37-1.59-1.99-3.04-2.05-.24-.01-.48,.02-.71,.08Z"/>
  <path class="cls-1" d="M70.47,35.09s-.07,.05-.1,.07c-.43,.38-.54,.98-1.02,1.32-1.07,.76-2.74,.31-3.6,1.4-.12,.15-.22,.32-.3,.49-.04,.08-.26,.44-.22,.52,.05,.12,.44,.04,.55,.04,.31,0,.62,0,.92,0,.56,0,1.14,.04,1.67,.2,1.97,.61,.33,3.64-.05,4.8-.13,.42-.19,.85-.2,1.29,0,.1,0,1.07,.05,1.07h.11c.24-.3,.59-.56,1.02-.56,.13,.35,.27,.69,.41,1.04,.06,.14,.01,.65,.25,.53,.12-.06,.27-.37,.32-.48,.08-.15,.18-.3,.29-.43,.04-.05,.69-.73,.77-.55,.1,.21,.81,2.08,1.01,2,0-.22,.19-.47,.27-.66,.1-.22,.21-.44,.33-.66,.11-.19,.23-.4,.38-.56,.02-.02,.34-.32,.38-.23,.23,.55,.82,.88,1.03,1.45,.03,.02,.06,.02,.09,0,0-.15,.54-1.93,.66-1.93,.19,0,.44,.33,.58,.45,.13,.11,.28,.21,.4,.33,.05,.06,.1,.12,.15,.18,.03,.03,.12,.12,.11,.17,.03-.02,.02-.06,.03-.09,.01-.14-.01-.29-.02-.43,0-.15-.02-.3-.04-.45-.03-.29-.06-.58-.1-.87-.08-.56-.17-1.11-.26-1.66-.05-.31-.1-.62-.14-.94-.17-1.31-.32-2.6-.6-3.9-.28-1.31-.64-2.54-2.1-2.9-.65-.16-2.34-.48-3.03-.06Z"/>
  <path class="cls-1" d="M65.16,62.89c-.1,.02-.19,.05-.28,.09-.95,.44-1.51,1.55-1.86,2.47-.82,2.17-.96,4.55-1.25,6.83-.03,.19-.17,1.56-.04,1.56v.11c2.29,0,4.45,.11,6.77,.11,.18,0,.68,.08,.68-.11h.11c-.11-3.22,.09-7.67-1.97-10.39-.44-.58-1.43-.85-2.15-.68Z"/>
  <path class="cls-1" d="M78.01,62.84c-1.36,.33-2.03,2.09-2.35,3.24-.48,1.74-.67,3.53-.77,5.33-.01,.19-.12,2.65-.08,2.65,.96,0,7.21,.11,7.4-.21,.27-.48,.04-1.62-.03-2.14-.32-2.38-.36-5-1.54-7.16-.41-.74-1.07-1.68-2.01-1.76-.22-.02-.42,0-.62,.05Z"/>
  <path class="cls-2" d="M54.62,0c.5,.33,.3,1.39,.24,1.9-.43,3.86-2.55,7.6-6.11,9.36-.15,.07-.67,.28-.67,.45,0,.01,1.76-.23,1.9-.23,1.49-.07,3.07,.08,4.5,.54,1.34,.44,2.64,1.1,3.74,1.98,.61,.48,1.19,1.04,1.69,1.62,.25,.29,.81,.7,.81,1.1h-.11c-.91,.48-2.18,.68-3.27,.79-4.04,.38-7.31-.53-9.95-3.22-.47-.48-1.12-1.2-1.34-1.84-.26-.78-.12-2.16-.01-2.98,.48-3.76,2.98-6.85,6.34-8.47,.63-.31,1.49-.89,2.26-.89v-.11Z"/>
  <path class="cls-2" d="M88.91,0c.92,.22,1.8,.65,2.61,1.07,3.3,1.71,5.94,4.67,6.35,8.51,.09,.86,.29,2.13-.05,2.96-.34,.83-1.16,1.61-1.83,2.26-2.98,2.85-6.83,3.22-11.03,2.48-.4-.07-1.8-.39-1.8-.89,.57-.58,1.15-1.16,1.72-1.75,1.2-1.08,2.65-1.92,4.16-2.48,.45-.17,.92-.29,1.4-.38,.33-.06,.66-.04,.99-.11,.57-.11,1.09-.17,1.67-.13,.93,.06,1.86,.26,2.8,.26-.88-.71-2.01-1.19-2.89-1.94-2.85-2.42-4.1-5.99-4.1-9.88Z"/>
  <path class="cls-2" d="M43,3.79c.27,.79,.21,1.95,.13,2.79-.24,2.55-1.05,5.17-2.78,7.13-.53,.6-1.15,1.12-1.78,1.62-.34,.27-.69,.61-1.11,.74-.01,.03-.01,.06,0,.09,.94-.03,1.91-.34,2.85-.43,2.27-.22,4.68,.34,6.66,1.43,.54,.3,1.05,.63,1.54,1,.3,.23,1.66,1.58,1.91,1.58v.33c-2.08,.63-4.17,1.55-6.66,1.43-2.77-.13-4.95-1.01-6.92-2.73-.47-.4-1.16-.98-1.43-1.55-.29-.58-.32-1.45-.33-2.17-.05-3.18,.99-5.65,2.92-7.81,1.41-1.59,3.3-2.34,4.98-3.45Z"/>
  <path class="cls-2" d="M100.76,4.02c.97,.15,1.8,.75,2.59,1.23,3.36,2.03,5.4,5.21,5.53,9.25,.06,1.87-.05,2.82-1.4,4.08-2.79,2.59-6.64,3.48-10.66,2.68-.71-.22-1.43-.44-2.14-.65-.38-.14-.75-.28-1.14-.41-.08-.22-.1-.27,.05-.46,.46-.55,1.08-.98,1.64-1.42,2.37-1.86,5.4-2.7,8.77-2.5,.91,.06,1.76,.47,2.62,.47-.72-.76-1.76-1.27-2.55-2.05-1.96-1.94-2.91-4.33-3.27-7.1-.01-1.04-.02-2.08-.04-3.12Z"/>
  <path class="cls-2" d="M62.19,5.55c.55-.06,1.12-.09,1.69-.07,1.09,.04,2.17,.2,3.22,.47,.11,.03,2.32,.74,2.08,.96-.69,.62-1.37,1.24-2.07,1.85-1.7,1.39-3.72,2.31-5.95,2.68-1.95,.31-5.15-.15-6.61-1.24-.04-.03-.14-.16-.2-.28-.04-.08-.1-.17,0-.17,.27-.5,.72-.86,1.15-1.21,1.94-1.59,4.22-2.71,6.7-3Z"/>
  <path class="cls-2" d="M78.88,5.49c.89-.1,1.82,.01,2.69,.11,.98,.11,1.96,.32,2.89,.65,.52,.18,1.03,.41,1.52,.67,.63,.34,1.33,.75,1.87,1.22,.39,.34,.77,.69,1.16,1.04,.16,.15,.32,.29,.49,.44,.03,.03,.21,.15,.21,.19,0,.07-.01,.07-.01,.15-.04,0-.06,.08-.1,.08-.66,.52-1.56,.78-2.35,1.05-4.17,1.37-8.17-.42-11.1-2.9-.31-.26-1.43-1.17-1.43-1.6,1.22-.37,2.43-.73,3.68-1,.16-.04,.33-.06,.5-.08Z"/>
  <path class="cls-2" d="M28.67,24.99c.97-.65,1.97-1.28,3.05-1.74,1.1-.47,2.29-.49,3.44-.74,1.14-.25,2.33-.06,3.45,.17,.94,.19,1.95,.4,2.81,.83,.1,.05,.69,.36,.44,.36-2.93,3.48-7.85,5.41-12.53,4.03-.8-.24-1.79-.5-2.42-1.08-.69-.64-1.12-1.74-1.47-2.58-1.22-3.01-.52-6.81,.96-9.39,.6-1.06,1.45-2.06,2.25-3.02,.75,.24,.93,1.16,1.2,1.8,1.48,3.57,.85,7.75-1.03,10.84"/>
  <path class="cls-2" d="M115.65,25.21c-2.09-2.54-2.83-6.46-2-9.92,.29-1.23,.9-2.31,1.32-3.46,.72,.34,1.2,1.15,1.63,1.74,2.16,2.96,3.54,7.35,1.79,11.1-.35,.73-.65,1.56-1.23,2.16-.74,.76-2.02,1.05-3.01,1.33-2.86,.82-6.13,.04-8.44-1.27-1.23-.7-2.63-1.64-3.55-2.84-.04-.06-.28-.29-.06-.29,.07,0,.23-.14,.29-.17,.12-.06,.25-.12,.38-.17,.27-.11,.56-.21,.84-.29,.61-.19,1.24-.33,1.87-.42,.71-.1,1.42-.18,2.13-.18,2.07,.01,4.02,.45,5.85,1.44,.48,.26,.96,.55,1.42,.85"/>
  <path class="cls-2" d="M20.44,33.24c2.1-1.56,4.22-3.08,7.11-3.12,2.04-.03,4.07,.06,5.71,.75,.04,.01,.54,.25,.26,.25-2.72,3.59-7.38,6.15-12.2,4.96-.83-.21-1.91-.4-2.56-.97-.78-.69-1.39-1.91-1.72-2.87-1.64-4.7-.35-8.49,2.38-12.16,1.58,.5,2.49,5.02,2.57,6.69,.04,.82-.06,1.82-.26,2.55-.19,.67-.37,1.33-.56,2"/>
  <path class="cls-2" d="M123.88,33.69c-.33-.71-.66-1.42-.99-2.13-.86-2.37-1.17-5.24-.37-7.8,.26-.63,.52-1.27,.78-1.9,.27-.53,.65-1.06,.8-1.67,.79,.22,1.21,1.16,1.6,1.76,2.13,3.25,2.76,7.83,.81,11.42-.32,.58-.69,1.46-1.25,1.89-.92,.69-2.91,1.14-4.21,1.22-2.16,.13-4.41-.38-6.07-1.37-.87-.52-4.42-2.92-4.42-4.1,0-.08,.74-.29,.84-.33,1.05-.33,2.11-.33,3.2-.47,1.85-.22,3.87,.28,5.56,1,.49,.21,.97,.46,1.42,.74,.49,.3,.96,.65,1.41,1.01"/>
  <path class="cls-2" d="M14.12,42.94v-.11h.11c1.56-2.32,5.23-4.24,8.12-4.24,1.07-.47,3.55,.22,4.62,.22v.11c-.46,.62-.93,1.24-1.39,1.86-1.43,1.7-3.08,3.34-5.18,4.09-1.92,.68-5.83,1.14-7.7-.01-1.83-1.12-3.12-4.41-3.39-6.5-.12-.89,0-2.02,.1-2.89,.24-2.1,1.3-3.73,2-5.58,.73,.17,1.25,1.08,1.58,1.67,1.35,2.4,2.17,4.96,1.83,8.04"/>
  <path class="cls-2" d="M130.2,43.39c-1.83-4.45-1.32-9.85,2.14-13.27,1,.53,1.85,3.59,2.11,4.69,.81,3.46-.22,6.76-2.21,9.26-.28,.35-.64,.85-1.06,1.04-.73,.32-1.58,.43-2.45,.53-4.13,.45-7.47-1.33-9.97-4.22-.38-.44-1.65-1.91-1.65-2.49,.61-.06,1.21-.15,1.82-.2,.58-.05,1.16-.16,1.74-.11,1.97,.15,3.99,.52,5.72,1.52,.46,.27,.92,.57,1.33,.9,.29,.23,2.36,2.24,2.36,2.24"/>
  <path class="cls-2" d="M12.77,53.13c1.03-2.24,2.74-3.81,4.89-5.01,.73-.41,1.48-.75,2.27-1.02,.17-.05,2.09-.46,2.09-.38-.48,4.85-3.14,8.98-7.88,10.43-.8,.24-2,.61-2.94,.44-.93-.18-1.88-.79-2.63-1.35-2.99-2.22-4.37-5.48-4.37-9.4,0-.87-.04-1.99,.34-2.68,.17-.31,3.86,2.92,4.15,3.25,1.15,1.28,2.03,2.9,2.51,4.54,.32,1.1,.35,2.22,.46,3.35"/>
  <path class="cls-2" d="M132.34,55.55c0-1.28,.17-2.56,.57-3.77,.38-1.13,.9-2.22,1.57-3.2,.42-.61,.88-1.27,1.41-1.78,.52-.5,1.16-.92,1.74-1.35,.54-.41,1.26-.64,1.7-1.16,.42,.39,.39,.99,.48,1.55,.51,3.38-.74,6.74-2.69,9.07-.95,1.13-2.99,2.65-4.46,2.9-.71,.12-1.74-.14-2.37-.33-2.81-.85-4.66-2.15-6.33-4.59-.54-.78-2.4-4.82-1.84-5.8,.05-.09,.3-.08,.39-.08,.68,.03,1.35,.3,1.92,.49,3.11,1.04,5.73,3.36,7.04,6.34"/>
  <path class="cls-2" d="M10.18,64.92c.86-2.27,2.38-4.01,4.33-5.58,.63-.51,1.38-.9,2.11-1.23,.42-.19,1.52-.81,2-.65,.2,1.62-.27,3.58-.86,5.08-.59,1.49-1.4,2.92-2.58,4.04-.65,.62-1.42,1.22-2.2,1.67-.87,.51-2.58,1.25-3.71,1.18-.9-.06-1.66-.52-2.41-.87-4.53-2.12-5.94-6.62-5.94-11.68,3.82,1.21,6.91,4.35,8.02,8.14,.2,.68,.44,1.58,.44,2.35"/>
  <path class="cls-2" d="M134.6,67.59c.35-3.74,2.22-6.87,5.31-8.96,.87-.6,1.97-.9,2.82-1.52,.66,.32,.43,1.48,.36,2.12-.38,3.41-1.48,6.34-4.18,8.48-1.02,.81-2.84,1.81-4.2,1.92-.95,.08-2.14-.47-2.92-.81-3.42-1.49-5.72-4.82-6.26-8.48-.09-.63-.55-1.83-.13-2.46,.21-.32,1.59,.3,1.78,.39,3.27,1.5,5.61,3.63,6.73,7.08"/>
  <path class="cls-2" d="M9.72,78.75c0-3.49,1.72-6.86,4.44-8.87,1-.74,2.09-1.31,3.12-1.95,.6,.27,.45,1.16,.45,1.78,0,3.51-.96,6.67-3.55,8.86-1.16,.98-2.69,2.02-4.24,2.23-.83,.11-1.86-.27-2.58-.51-3.67-1.21-6.15-4.49-7.02-8.12-.1-.42-.51-2.16-.25-2.57,.06-.11,.39-.08,.49-.07,.82,.1,1.59,.49,2.28,.8,2.86,1.31,5.01,3.68,6.18,6.51"/>
  <path class="cls-2" d="M134.31,78.88c.38-4.07,4.3-7.45,7.93-8.78,.52-.19,1.24-.5,1.83-.5-.31,4.79-2.67,9.35-7.33,10.83-.72,.23-1.65,.61-2.48,.57-.92-.05-1.86-.58-2.62-.99-3.68-1.96-5.29-5.79-5.49-9.97,.03-.67,.07-1.33,.1-2,2.38,.76,4.77,2.68,6.14,4.83,.36,.56,.61,1.2,.92,1.76,.55,.98,.9,2.44,.93,3.67"/>
  <path class="cls-2" d="M13.78,89.79c-.14-.87-.39-1.74-.44-2.68-.13-2.68,.61-5.19,1.99-7.15,.69-.99,1.61-1.82,2.39-2.77,1.39,.56,1.82,5.85,1.52,7.44-.45,2.41-1.33,4.23-3.07,5.96-.42,.41-.9,.88-1.43,1.12-.76,.34-1.9,.23-2.78,.21-4.46-.14-7.17-2.44-9.38-5.9-.26-.41-.95-1.44-.81-1.99,.06-.28,.79-.26,1.06-.26,4.08-.07,7.65,1.77,10.01,4.8"/>
  <path class="cls-2" d="M131.03,88.82c.47-.54,.94-1.07,1.41-1.61,1.22-1.14,2.71-1.97,4.28-2.54,.48-.17,.98-.31,1.48-.37,.86-.11,1.72-.15,2.58-.27,.5-.07,.99-.06,1.49-.03,0,.01,.1,0,.1,.01,0,.02,0,.04,0,.05,.04,0-.03,.04,0,.06-.12,.83-.73,1.6-1.13,2.32-1.96,3.44-5.06,5.33-9.13,5.72-.88,.08-2.09,.08-2.88-.24-.65-.27-1.24-.9-1.77-1.43-3.43-3.39-3.54-8.93-1.55-13.19,.49,.23,.92,.74,1.32,1.14,1.91,1.95,3.32,4.59,3.37,7.45,0,.72-.01,1.55-.08,2.23-.06,.43-.11,.86-.17,1.29"/>
  <path class="cls-2" d="M21.34,87.23c.75,.31,1.03,1.53,1.26,2.22,1.22,3.83,1.04,7.87-1.5,10.92-.74,.88-1.46,1.68-2.59,1.96-3.95,.95-7.56-.88-10.19-3.23-.83-.75-1.45-1.72-1.99-2.69-.15-.27-.28-.55-.44-.81-.04-.08-.08-.19-.14-.25,.22-.08,.41-.2,.63-.28,.61-.21,1.25-.09,1.88-.09,2.9,0,5.58,.98,7.63,2.67,.29,.23,2.52,2.64,2.52,2.64-.98-2.71-1.01-6.28,.12-8.92,.65-1.51,1.7-2.86,2.81-4.13Z"/>
  <path class="cls-2" d="M122.19,87.34c.72,.23,1.18,.99,1.6,1.54,1.97,2.6,3.13,6.35,2.17,9.93-.05,.16-.45,1.47-.16,1.47,.35-.98,1.23-1.71,2.02-2.34,1.22-.96,2.66-1.79,4.15-2.24,.44-.13,.89-.24,1.35-.3,.48-.07,.96-.1,1.44-.16,.52-.06,1.02-.15,1.54-.13,.37,.02,.75,.04,1.12,.06,.1,0,.75-.02,.78,.09,.07,.28-.25,.79-.39,1.04-.19,.33-.41,.64-.63,.95-2.3,3.28-5.57,5.54-9.91,5.47-1.63-.03-2.74-.24-3.81-1.36-2.54-2.67-3.58-6.64-2.59-10.45,.33-1.27,1.02-2.35,1.32-3.58Z"/>
  <path class="cls-2" d="M25.85,96.48c.77,.27,1.27,1.47,1.56,2.12,.69,1.55,1.31,3.08,1.46,4.91,.22,2.7-.82,5.7-2.6,7.77-.43,.5-1.22,.58-1.83,.71-.77,.17-1.52,.35-2.31,.41-2.14,.17-4.44-.51-6.05-1.48-1.62-.97-3.58-2.56-4.6-4.21-.62-.99,2.07-.84,2.56-.91,3.38-.5,6.75,.68,9.38,2.79,.22,.18,.98,.67,.98,.94h.11c-.32-.91-.78-1.8-.98-2.8-.8-3.93,.31-7.27,2.33-10.25Z"/>
  <path class="cls-2" d="M121.05,108.29c1.5-1.19,3.77-2.22,5.88-2.22,.27-.14,.78-.1,1.13-.11,.88-.01,1.83,0,2.61,.17,.6,.13,1.2,.26,1.79,.38,0,.15-.04,.11,.11,.11,0,.15,.04,.11-.11,.11-2.61,3.6-6.38,6.07-11.17,5.7-1.1-.09-2.43-.29-3.32-.79-.66-.37-1.21-1.38-1.56-1.99-2.38-4.06-1.46-9.6,1.39-13.07,.52,.28,.86,.96,1.12,1.45,.99,1.86,1.66,3.92,1.67,6.03,0,.65-.04,1.32-.13,1.96-.12,.85-.42,1.66-.66,2.48-.14,.34-.28,.68-.42,1.01"/>
  <path class="cls-2" d="M35.33,116.79c-3.05-2.26-4.51-5.51-4.51-9.48,0-1.12,.08-2.47,.56-3.35,3.91,1.94,6.92,6.69,6.33,11.27-.12,.91-.26,2.05-.75,2.75-.55,.79-2.02,1.67-2.86,2.07-3.37,1.62-7.09,1.18-10.39-.21-.45-.21-.89-.42-1.34-.63-.23-.17-.46-.35-.69-.52v-.22c2.88-2.04,6.07-3.24,9.64-2.69,.77,.12,1.56,.26,2.31,.48,.53,.18,1.06,.35,1.59,.53"/>
  <path class="cls-2" d="M112.38,104.07h.23c.73,3.59,.48,7-1.41,9.89-.33,.5-.69,.97-1.09,1.41-.18,.2-.37,.39-.56,.58-.06,.07-.47,.67-.5,.67,.06,0,.12,0,.17,0,.83-.12,1.59-.52,2.42-.66,.69-.12,1.4-.24,2.1-.24,.97,0,1.97,.09,2.92,.29,.88,.18,5.28,1.87,5.24,2.78-.02,.38-.61,.6-.86,.76-2.63,1.57-6.91,2.32-10.11,1.19-1.29-.46-3.2-1.42-4.09-2.58-.38-.5-.54-1.25-.64-1.91-.5-3.23,.3-6.15,2.06-8.56,1.07-1.47,2.66-2.61,4.11-3.61Z"/>
  <path class="cls-2" d="M39.2,88.42h-4.58l-.66,2.15h-4.14l4.91-12.98h4.46l4.91,12.98h-4.25l-.65-2.15Zm-.86-2.82l-1.43-4.66-1.43,4.66h2.86Z"/>
  <path class="cls-2" d="M45.76,77.59h5.76l2.21,7.91,2.21-7.91h5.74v12.98h-3.58v-9.89l-2.77,9.89h-3.23l-2.76-9.89v9.89h-3.58v-12.98Z"/>
  <path class="cls-2" d="M63.52,77.59h3.99l2.78,9.34,2.75-9.34h3.88l-4.59,12.98h-4.14l-4.66-12.98Z"/>
  <path class="cls-2" d="M89.67,80.78m4.14,0,4.05,0v9.79h-4.05v-9.79m5.16,0,0,0-9.3,0v-3.2h12.34v3.2"/>
  <path class="cls-2" d="M102.36,86.28l3.85-.24c.08,.62,.26,1.09,.52,1.42,.42,.53,1.02,.79,1.8,.79,.58,0,1.03-.13,1.35-.4,.32-.27,.47-.58,.47-.94s-.15-.64-.45-.91c-.3-.27-1-.52-2.08-.75-1.78-.4-3.05-.92-3.81-1.58-.76-.66-1.15-1.49-1.15-2.51,0-.67,.2-1.3,.59-1.89,.39-.59,.98-1.06,1.76-1.4,.79-.34,1.86-.51,3.23-.51,1.68,0,2.96,.31,3.84,.93,.88,.62,1.41,1.6,1.57,2.95l-3.82,.22c-.1-.59-.31-1.02-.64-1.28-.33-.27-.77-.4-1.35-.4-.47,0-.83,.1-1.06,.3-.24,.2-.36,.44-.36,.72,0,.21,.1,.39,.29,.56,.19,.17,.64,.33,1.36,.48,1.77,.38,3.05,.76,3.81,1.15,.77,.39,1.33,.87,1.68,1.44,.35,.57,.52,1.22,.52,1.93,0,.83-.23,1.61-.7,2.31-.47,.7-1.12,1.24-1.96,1.6-.84,.36-1.89,.54-3.16,.54-2.24,0-3.79-.43-4.65-1.28-.86-.85-1.35-1.93-1.46-3.25Z"/>
  <path class="cls-1" d="M53.04,94.52l1.88,5.9h6.36l-5.1,3.8,1.97,6.04-5.1-3.71-5.08,3.71,1.99-6.04-5.17-3.81h6.34l1.92-5.9Z"/>
  <path class="cls-1" d="M31.95,65.5l-.19,2.61,1.22,.46-.17,2.36-7.34-3.34,.19-2.54,7.75-2.25-.18,2.42-1.27,.28Zm-1.66,.37l-2.77,.62,2.65,1.01,.12-1.63Z"/>
  <path class="cls-1" d="M26.22,60.13l.85-2.93,4.75,.13-4.09-2.38,.85-2.92,7.27,2.07-.53,1.81-5.55-1.58,5.14,2.99-.48,1.64-5.96-.17,5.55,1.58-.53,1.81-7.27-2.07Z"/>
  <path class="cls-1" d="M29.76,49.43l2.92-5.49,1.43,.74-1.82,3.43,1.07,.55,1.69-3.19,1.37,.71-1.69,3.19,1.31,.68,1.88-3.54,1.52,.79-2.97,5.59-6.7-3.48Z"/>
  <path class="cls-1" d="M40.09,46.32l-5.93-4.65,2.42-3.02c.45-.56,.84-.95,1.18-1.17,.33-.22,.71-.32,1.11-.29,.41,.02,.8,.19,1.18,.48,.33,.26,.56,.55,.68,.88,.13,.33,.17,.67,.12,1.03-.03,.23-.12,.5-.28,.82,.25-.16,.45-.26,.6-.3,.1-.03,.28-.04,.54-.04,.26,0,.45,.01,.57,.04l2.42,.47-1.64,2.05-2.59-.45c-.33-.06-.57-.07-.72-.03-.2,.06-.36,.17-.49,.34l-.13,.16,2.4,1.89-1.46,1.82Zm-2.06-4.58l.61-.76c.07-.08,.17-.26,.3-.54,.07-.14,.09-.29,.05-.44-.04-.15-.12-.28-.25-.38-.19-.15-.39-.21-.59-.17-.2,.04-.43,.22-.7,.55l-.64,.79,1.21,.95Z"/>
  <path class="cls-1" d="M40.27,34.64l1.72-1.58,5.16,5.47-1.72,1.58-5.16-5.47Z"/>
  <path class="cls-1" d="M50.76,32.04l2.05-.64c.21,.55,.3,1.06,.27,1.54-.03,.48-.17,.92-.42,1.33-.25,.4-.66,.8-1.22,1.17-.68,.46-1.3,.73-1.87,.83-.57,.09-1.17,0-1.83-.28-.65-.28-1.24-.81-1.77-1.58-.7-1.02-.97-2-.8-2.92,.17-.92,.76-1.72,1.77-2.4,.79-.53,1.52-.79,2.18-.78,.67,.01,1.34,.27,2,.78l-1.45,1.53c-.19-.15-.35-.25-.47-.29-.21-.08-.42-.1-.63-.08-.21,.03-.41,.1-.6,.23-.44,.29-.65,.69-.64,1.2,0,.38,.19,.84,.57,1.39,.47,.69,.9,1.09,1.28,1.2s.77,.04,1.15-.21c.37-.25,.58-.54,.62-.87,.05-.33-.02-.72-.2-1.17Z"/>
  <path class="cls-1" d="M58.94,30.1l-2.45,.99,.12,1.28-2.21,.9-.25-7.98,2.38-.96,5.49,5.86-2.27,.92-.82-1Zm-1.08-1.31l-1.79-2.18,.27,2.8,1.53-.62Z"/>
  <path class="cls-1" d="M61.36,22.7l2.16-.37,3.52,3.6-.71-4.08,2.17-.37,1.28,7.37-2.17,.37-3.5-3.58,.7,4.06-2.17,.37-1.28-7.37Z"/>
  <path class="cls-1" d="M75.15,21.33l2.42,.35,.91,5.57,2.44-5.09,2.35,.34-3.86,7-2.51-.36-1.75-7.81Z"/>
  <path class="cls-1" d="M85.36,23.13l5.89,2.12-.55,1.5-3.68-1.33-.41,1.12,3.42,1.23-.53,1.43-3.42-1.23-.51,1.38,3.8,1.37-.59,1.6-6-2.16,2.59-7.03Z"/>
  <path class="cls-1" d="M93.27,26.17l6.07,3.63-.97,1.58-2.04-1.22-2.95,4.82-2-1.19,2.95-4.82-2.04-1.22,.97-1.58Z"/>
  <path class="cls-1" d="M100.85,30.87l4.66,4.15-1.08,1.19-2.91-2.59-.81,.89,2.71,2.41-1.03,1.13-2.71-2.41-.99,1.09,3,2.67-1.15,1.26-4.75-4.23,5.06-5.56Z"/>
  <path class="cls-1" d="M101.34,41.54l6.03-4.51,2.35,3.07c.44,.57,.72,1.04,.85,1.42,.13,.37,.13,.75,0,1.14-.13,.38-.38,.72-.77,1.01-.33,.25-.68,.4-1.03,.44-.35,.04-.7,0-1.04-.14-.22-.09-.46-.24-.73-.47,.09,.28,.14,.49,.15,.65,0,.1-.03,.28-.09,.53-.06,.25-.12,.43-.18,.54l-1.06,2.2-1.59-2.09,1.09-2.36c.14-.3,.21-.53,.21-.68,0-.2-.08-.39-.21-.56l-.12-.16-2.45,1.83-1.42-1.85Zm5-.83l.59,.78c.06,.08,.22,.23,.46,.43,.12,.1,.26,.16,.42,.16,.16,0,.31-.05,.44-.15,.19-.15,.3-.32,.31-.52s-.11-.47-.37-.8l-.62-.81-1.23,.92Z"/>
  <path class="cls-1" d="M109.65,52.09l-1.16-2.35-1.29,.2-1.05-2.12,8.04-.76,1.13,2.29-5.56,5.8-1.07-2.18,.96-.88Zm1.25-1.15l2.08-1.91-2.81,.45,.72,1.47Z"/>
  <path class="cls-1" d="M117.26,53.74l.56,2.09-3.32,3.78,4.05-1.05,.56,2.11-7.32,1.9-.56-2.11,3.3-3.76-4.02,1.05-.56-2.11,7.32-1.9Z"/>
  <path class="cls-1" d="M114.43,63.41l.3,2.19c-.36,.07-.63,.19-.81,.35-.29,.26-.42,.61-.39,1.05,.02,.33,.12,.58,.29,.74,.17,.17,.36,.24,.56,.23,.2-.01,.36-.11,.51-.29,.14-.18,.26-.59,.35-1.21,.16-1.03,.41-1.77,.76-2.23,.35-.46,.82-.71,1.41-.75,.39-.03,.76,.06,1.12,.26,.36,.2,.66,.51,.89,.95s.37,1.04,.43,1.82c.07,.96-.06,1.7-.38,2.22-.32,.53-.87,.86-1.65,1.01l-.28-2.16c.33-.08,.57-.22,.71-.42,.14-.2,.2-.46,.18-.79-.02-.27-.09-.47-.22-.6-.12-.13-.27-.19-.43-.18-.12,0-.22,.07-.31,.19-.09,.12-.17,.38-.22,.8-.15,1.03-.32,1.76-.51,2.22-.19,.45-.45,.79-.77,1.01-.32,.22-.68,.35-1.1,.38-.49,.03-.94-.07-1.37-.3-.43-.24-.76-.58-1.01-1.05-.25-.46-.39-1.05-.45-1.78-.09-1.27,.1-2.17,.55-2.69,.46-.52,1.07-.84,1.83-.96Z"/>
</svg>