<?xml version="1.0" encoding="UTF-8"?>
<svg id="Layer_1" data-name="Layer 1" xmlns="http://www.w3.org/2000/svg" viewBox="0 0 144.08 137.64">
  <defs>
    <style>
      .cls-1 {
        fill: #e03a3e;
      }

      .cls-2, .cls-3, .cls-4, .cls-5, .cls-6 {
        fill: #fff;
      }

      .cls-7 {
        fill: #deb407;
      }

      .cls-3 {
        font-size: 9.08px;
      }

      .cls-3, .cls-4, .cls-5, .cls-6 {
        font-family: Arial-Black, Arial;
        font-weight: 800;
      }

      .cls-4 {
        font-size: 9.08px;
      }

      .cls-5 {
        font-size: 9.08px;
      }

      .cls-6 {
        font-size: 9.08px;
      }

      .cls-8 {
        fill: #00529b;
      }

      .cls-9 {
        fill: #231f20;
      }
    </style>
  </defs>
  <path class="cls-8" d="M123.13,116.72c-9.5,.13-11.27-8.86-11.27-8.86-42.17,36.96-79.96-.96-79.96-.96-.51,10.02-9.83,9.72-9.83,9.72l.13,.06s47.87,47.13,100.81,.04"/>
  <g>
    <text class="cls-6" transform="translate(28.12 118.33) rotate(35.53) scale(1 1.05)"><tspan x="0" y="0">S</tspan></text>
    <text class="cls-6" transform="translate(33.75 122.35) rotate(30.52) scale(1 1.05)"><tspan x="0" y="0">O</tspan></text>
    <text class="cls-6" transform="translate(40.64 126.39) rotate(24.92) scale(1 1.05)"><tspan x="0" y="0">N</tspan></text>
    <text class="cls-6" transform="translate(47.85 129.7) rotate(19.34) scale(1 1.05)"><tspan x="0" y="0">S</tspan></text>
    <text class="cls-6" transform="translate(57.46 132.84) rotate(10.58) scale(1 1.05)"><tspan x="0" y="0">O</tspan></text>
    <text class="cls-6" transform="translate(65.32 134.25) rotate(4.15) scale(1 1.05)"><tspan x="0" y="0">F</tspan></text>
    <text class="cls-3" transform="translate(74.97 134.69) rotate(-5.21) scale(1 1.05)"><tspan x="0" y="0">A</tspan></text>
    <text class="cls-5" transform="translate(82.53 134.02) rotate(-12.83) scale(1 1.05)"><tspan x="0" y="0">M</tspan></text>
    <text class="cls-4" transform="translate(91.34 131.92) rotate(-20.02) scale(1 1.05)"><tspan x="0" y="0">V</tspan></text>
    <text class="cls-6" transform="translate(98.31 129.34) rotate(-25.75) scale(1 1.05)"><tspan x="0" y="0">E</tspan></text>
    <text class="cls-6" transform="translate(104.5 126.34) rotate(-30.74) scale(1 1.05)"><tspan x="0" y="0">T</tspan></text>
    <text class="cls-6" transform="translate(110.37 122.83) rotate(-35.18) scale(1 1.05)"><tspan x="0" y="0">S</tspan></text>
  </g>
  <path class="cls-8" d="M103.25,93.13c4.25,0,8.5,0,12.75,0,.29,0,1.35-.09,1.35,0,.42,.61-2.68,4.9-3.17,5.63-3.88,5.74-10.04,11.13-15.91,14.43-4.74,2.66-9.83,4.76-15.35,5.92-10.19,2.14-21.91,.93-30.67-2.87-2.64-1.15-5.27-2.31-7.66-3.97-2.11-1.47-4.31-2.88-6.24-4.69-1.12-1.04-2.28-2.03-3.38-3.16-2.4-2.47-4.35-5.23-6.22-8-.46-.67-1.56-2.17-1.65-2.97-.05-.39,1.57-.33,1.93-.33h16.02c15.86,0,31.72,0,47.57,0h10.64Z"/>
  <path class="cls-2" d="M91.26,95.56l1.88,5.97h6.36l-5.1,3.84,1.97,6.1-5.1-3.75-5.08,3.75,1.99-6.1-5.17-3.85h6.34l1.92-5.97Z"/>
  <path class="cls-2" d="M72.23,95.56l1.88,5.97h6.36l-5.1,3.84,1.97,6.1-5.11-3.75-5.08,3.75,1.99-6.1-5.17-3.85h6.34l1.92-5.97Z"/>
  <path class="cls-9" d="M78.57,78.42h9.49v2.79h-5.95v2.12h5.54v2.67h-5.54v2.58h6.13v2.97h-9.67v-13.12Z"/>
  <path class="cls-1" d="M123.1,76.67H21.79c-.14,0-.45,.07-.45-.11h-.11c-.11-1.28-.21-2.56-.32-3.84-.21-3.39-.13-7.14,.36-10.37,1.37-9.1,5.32-18.34,11.16-25.44,6.36-7.72,14.81-13.9,24.54-16.54,4.08-1.11,8.25-1.87,12.44-2.15,4.75-.32,9.53-.02,14.22,1.11,3.53,.85,7.03,2.08,10.33,3.6,12.96,5.98,23.11,17.72,27.29,31.19,1.15,3.7,1.87,7.45,2.2,11.6,.13,1.66,.38,3.8,.15,5.54-.02,.56-.05,1.12-.07,1.68-.11,1.17-.21,2.33-.31,3.5,0,.15-.03,.23-.12,.23"/>
  <path class="cls-8" d="M58.6,34.36c-1.06,.28-2.04,1.23-2.64,2.04-.82,1.1-1.27,2.47-1.84,3.71-.83,1.73-1.66,3.46-2.49,5.19-2.89,6.17-5.79,12.33-8.68,18.5-1.47,3.06-2.93,6.12-4.4,9.18-.12,.27-.48,.91-.29,1.21v-.11c1.92-1.12,3.34-3.2,4.45-5.04,.73-1.21,1.54-2.42,2.18-3.65,.25-.49,1.21-2.51,1.59-2.76,.51-.33,1.71-.16,2.37-.16-.58,1.25-1.17,2.5-1.76,3.74-1.09,2.24-2.13,4.48-3.21,6.74-.06,.12-.66,1.24-.34,1.24v-.11c2.45-1,5.41-6.37,6.59-8.61,.36-.69,1.06-2.41,1.68-2.84,.27-.19,1.84-.28,2.22-.28v.11h.11c-.3,1.29-1.16,2.59-1.74,3.76-1.07,2.24-2.14,4.49-3.21,6.73-.07,.13-.67,1.24-.35,1.24v-.11c.91-.37,1.65-1.25,2.29-2,1.96-2.29,3.23-4.88,4.75-7.39,.27-.45,.77-1.79,1.18-2.06,.31-.21,1.85-.28,2.26-.28v.11h.11c-.24,.99-.84,1.96-1.28,2.86-1.04,2.17-2.08,4.33-3.12,6.5-.26,.56-1.12,1.91-1.12,2.48h.23v-.11c1.02-.28,1.84-1.21,2.52-2,1.22-1.44,2.25-2.98,3.18-4.58,1.05-1.82,2.24-5.09,4.27-6.08,.68-.33,1.63-.48,2.43-.29,4.22,.98,4.75,9.71,4.75,13.63,.35-.01,1.17,.08,1.37-.18,.21-.28,.29-2.63,.33-3.2,.25-3.28,1.03-10.12,5.17-10.25,1.23-.04,2.22,.47,2.99,1.27,1.08,1.11,1.65,2.56,2.35,3.87,1.28,2.38,2.74,4.84,4.78,6.82,.46,.45,1.28,1.22,1.95,1.22-1.37-2.89-2.74-5.77-4.11-8.66-.29-.58-1.42-2.56-1.42-3.18h.23v-.11c.6,.14,1.64-.05,2.14,.28,.41,.26,1.61,2.83,1.88,3.35,.67,1.31,4.8,8.1,6.36,8.1v.11h.11c-.26-.99-.86-1.92-1.3-2.84-.96-2.06-1.92-4.11-2.89-6.17-.3-.71-.98-1.59-1.04-2.4,.02-.08,.04-.16,.06-.24,.18-.02,.37-.05,.55-.07,.14,0,.29-.01,.44-.02,.37-.02,.98,.05,1.2,.29,.83,.95,1.31,2.33,1.91,3.42,1.49,2.7,3.21,5.55,5.69,7.6,.16,.13,.7,.35,.7,.55h.11c-.39-1.13-.99-2.2-1.54-3.29-.88-1.87-1.76-3.74-2.65-5.61-.37-.82-.87-1.64-1.15-2.51,0-.08,0-.16-.01-.24,.02-.04,.04-.07,.06-.11,.29-.03,.59-.05,.88-.08,.38,0,1.04-.03,1.28,.18,.65,.57,1.47,2.51,1.88,3.3,1.28,2.52,3.67,6.39,6.09,8,.12,.08,.23,.08,.23,.24,.11-.19,.1-.43,.03-.64-1.69-3.48-3.37-6.96-5.05-10.43-3.2-6.76-6.4-13.53-9.6-20.29-.51-1.11-1.03-2.23-1.55-3.34-.69-1.57-1.28-3.42-2.78-4.53-.72-.54-1.83-.94-2.83-.7-1.69,.39-2.53,2.03-2.76,3.65-.03,.63-.06,1.27-.09,1.9-.16,1.21-.35,2.33-.81,3.36-.32,.72-.83,1.49-1.55,1.89-.29,.15-1.39,.37-1.51,.6-.34,.64-.1,1.47-.16,2.16-.02,.25-.81-.44-.84-.48-.13-.14-.51-.45-.59-.67-.01-.03-.08-.12-.08-.14-.04,0,.03-.02,0,0,0,.04-.04,.15-.04,.18-.23,.64-.45,1.28-.68,1.92-.4-.2-1.23-1.46-1.58-1.47-.3,0-1.04,2.1-1.14,2.36,0,0-.1,0-.1,0-.16,.04-.71-1.14-.77-1.31-.09-.29-.1-.96-.47-1.05-.15,.28-.43,.47-.62,.72-.18,.24-.29,.53-.52,.74-.08,.08-.09,.11-.23,.11-.23-.64-.45-1.28-.68-1.92h-.11c-.35,.3-.98,1.01-1.47,1.01,0-.58,.17-1.8-.18-2.21-.21-.24-.87-.23-1.17-.31-1.01-.27-1.83-.98-2.3-1.92-.48-.95-.75-2.19-.84-3.34-.1-1.27-.11-2.56-.54-3.78-.49-1.38-1.59-2.01-3.04-2.08-.24,0-.48,.02-.71,.08Z"/>
  <path class="cls-2" d="M70.47,35.47s-.07,.05-.1,.07c-.43,.38-.54,1-1.02,1.34-1.07,.77-2.74,.31-3.6,1.41-.12,.16-.22,.33-.3,.5-.04,.08-.26,.44-.22,.52,.05,.12,.44,.04,.55,.04,.31,0,.62,0,.92,0,.56,0,1.13,.04,1.67,.2,1.97,.62,.33,3.68-.05,4.85-.13,.42-.19,.86-.2,1.3,0,.1,0,1.09,.05,1.09h.11c.24-.31,.59-.56,1.02-.56,.13,.35,.27,.7,.41,1.05,.06,.15,.01,.66,.25,.54,.12-.06,.27-.38,.32-.48,.08-.16,.18-.3,.29-.44,.04-.05,.69-.73,.77-.56,.1,.21,.81,2.1,1.01,2.02,0-.22,.19-.47,.28-.67,.1-.23,.21-.45,.33-.66,.11-.2,.23-.4,.38-.57,.02-.02,.34-.32,.38-.24,.23,.55,.82,.89,1.03,1.46,.03,.02,.06,.02,.09,0,0-.16,.54-1.95,.66-1.95,.19,0,.44,.34,.58,.45,.13,.11,.28,.21,.4,.33,.05,.06,.1,.12,.15,.18,.03,.04,.12,.12,.11,.17,.03-.02,.02-.06,.03-.09,0-.14-.01-.29-.02-.43,0-.15-.02-.3-.03-.45-.03-.29-.06-.58-.1-.87-.08-.56-.17-1.12-.26-1.68-.05-.32-.1-.63-.14-.95-.17-1.32-.32-2.63-.6-3.94-.28-1.32-.64-2.57-2.1-2.93-.65-.16-2.34-.49-3.03-.06Z"/>
  <path class="cls-8" d="M65.16,63.57c-.1,.02-.19,.06-.28,.09-.95,.44-1.51,1.57-1.86,2.5-.82,2.19-.96,4.6-1.25,6.9-.03,.19-.17,1.58-.04,1.58v.11c2.29,0,4.45,.11,6.77,.11,.18,0,.68,.08,.68-.11h.11c-.11-3.25,.09-7.76-1.97-10.5-.44-.59-1.43-.85-2.15-.68Z"/>
  <path class="cls-8" d="M78.02,63.52c-1.36,.33-2.03,2.11-2.35,3.27-.48,1.76-.67,3.57-.78,5.39-.01,.2-.12,2.68-.08,2.68,.96,0,7.21,.11,7.4-.22,.27-.48,.04-1.63-.03-2.16-.32-2.41-.36-5.06-1.54-7.24-.41-.75-1.07-1.7-2.01-1.78-.22-.02-.42,0-.62,.05Z"/>
  <path class="cls-7" d="M54.62,0c.5,.33,.29,1.4,.24,1.92-.43,3.9-2.55,7.68-6.11,9.46-.15,.08-.67,.29-.67,.46,0,.01,1.76-.23,1.9-.24,1.5-.07,3.07,.08,4.5,.55,1.34,.44,2.64,1.12,3.74,2,.61,.49,1.18,1.05,1.69,1.64,.25,.29,.81,.71,.81,1.12h-.11c-.91,.49-2.18,.69-3.27,.8-4.04,.39-7.31-.53-9.95-3.25-.47-.49-1.12-1.21-1.34-1.86-.26-.79-.12-2.18-.01-3.01,.48-3.8,2.98-6.92,6.34-8.57,.63-.31,1.49-.9,2.26-.9v-.11Z"/>
  <path class="cls-7" d="M88.92,0c.92,.22,1.8,.66,2.61,1.08,3.3,1.73,5.94,4.72,6.35,8.6,.09,.87,.29,2.15-.05,2.99-.34,.83-1.16,1.63-1.83,2.28-2.98,2.88-6.83,3.26-11.03,2.51-.4-.07-1.81-.39-1.81-.9,.58-.59,1.15-1.18,1.72-1.77,1.2-1.09,2.65-1.94,4.16-2.5,.46-.17,.93-.29,1.4-.38,.33-.06,.66-.04,.99-.11,.57-.12,1.09-.17,1.67-.13,.93,.06,1.87,.27,2.8,.27-.88-.72-2.01-1.21-2.89-1.96-2.85-2.44-4.1-6.05-4.1-9.99Z"/>
  <path class="cls-7" d="M43,3.83c.27,.8,.21,1.97,.14,2.82-.24,2.57-1.05,5.23-2.78,7.21-.53,.61-1.15,1.13-1.78,1.63-.34,.27-.69,.61-1.11,.75-.01,.03,0,.06,0,.09,.95-.03,1.92-.34,2.86-.43,2.27-.22,4.68,.35,6.66,1.45,.54,.3,1.05,.64,1.54,1.01,.3,.23,1.66,1.59,1.91,1.59v.34c-2.08,.64-4.17,1.56-6.66,1.45-2.78-.13-4.95-1.03-6.92-2.76-.47-.41-1.16-.99-1.44-1.57-.29-.58-.33-1.47-.33-2.2-.05-3.21,.99-5.71,2.92-7.9,1.41-1.61,3.3-2.37,4.98-3.49Z"/>
  <path class="cls-7" d="M100.76,4.06c.97,.16,1.8,.76,2.59,1.24,3.36,2.05,5.41,5.26,5.54,9.35,.06,1.89-.05,2.85-1.4,4.12-2.8,2.62-6.64,3.51-10.66,2.71-.71-.22-1.43-.44-2.14-.66-.38-.14-.75-.28-1.13-.42-.08-.22-.1-.28,.05-.46,.46-.55,1.08-.99,1.65-1.43,2.37-1.88,5.4-2.73,8.77-2.52,.91,.06,1.76,.47,2.62,.47-.72-.77-1.76-1.28-2.55-2.07-1.96-1.96-2.91-4.38-3.27-7.18-.02-1.05-.03-2.1-.04-3.15Z"/>
  <path class="cls-7" d="M62.19,5.61c.55-.07,1.12-.09,1.69-.07,1.09,.04,2.17,.2,3.22,.48,.11,.03,2.33,.75,2.08,.97-.69,.62-1.37,1.25-2.07,1.87-1.7,1.4-3.72,2.34-5.95,2.71-1.95,.32-5.15-.15-6.61-1.25-.04-.03-.14-.16-.21-.28-.04-.08-.1-.17,0-.17,.27-.5,.71-.87,1.15-1.22,1.94-1.61,4.22-2.74,6.7-3.03Z"/>
  <path class="cls-7" d="M78.88,5.55c.89-.1,1.82,.01,2.69,.11,.98,.11,1.96,.32,2.89,.66,.52,.19,1.03,.42,1.52,.68,.63,.34,1.33,.76,1.87,1.23,.39,.35,.78,.7,1.16,1.05,.16,.15,.33,.29,.49,.44,.03,.03,.21,.15,.21,.19,0,.08-.01,.08-.01,.15-.04,0-.06,.08-.1,.08-.66,.53-1.56,.79-2.35,1.06-4.17,1.39-8.17-.42-11.11-2.94-.31-.26-1.43-1.19-1.43-1.62,1.22-.37,2.43-.74,3.68-1.02,.16-.04,.33-.06,.5-.08Z"/>
  <path class="cls-7" d="M28.68,25.25c.97-.66,1.97-1.29,3.05-1.75,1.1-.47,2.29-.49,3.44-.75,1.14-.25,2.33-.06,3.45,.18,.94,.2,1.95,.41,2.81,.84,.1,.05,.69,.36,.44,.36-2.93,3.51-7.85,5.46-12.53,4.07-.8-.24-1.8-.51-2.41-1.09-.69-.65-1.12-1.75-1.47-2.61-1.22-3.04-.52-6.89,.96-9.5,.6-1.07,1.45-2.08,2.25-3.05,.75,.24,.93,1.18,1.2,1.82,1.48,3.61,.85,7.83-1.03,10.95"/>
  <path class="cls-7" d="M115.65,25.48c-2.09-2.57-2.83-6.53-2-10.03,.29-1.24,.9-2.34,1.32-3.5,.72,.34,1.2,1.16,1.63,1.76,2.16,2.99,3.54,7.43,1.79,11.22-.34,.74-.65,1.57-1.23,2.18-.74,.76-2.02,1.06-3.01,1.35-2.86,.82-6.13,.04-8.44-1.29-1.23-.71-2.63-1.66-3.55-2.87-.04-.06-.28-.29-.06-.29,.07,0,.23-.14,.29-.17,.12-.06,.25-.12,.38-.17,.27-.11,.56-.21,.84-.3,.61-.19,1.24-.33,1.87-.42,.71-.1,1.42-.18,2.14-.18,2.07,.01,4.02,.46,5.85,1.45,.49,.26,.96,.55,1.42,.86"/>
  <path class="cls-7" d="M20.44,33.6c2.1-1.58,4.22-3.11,7.11-3.15,2.04-.04,4.07,.06,5.71,.75,.04,.01,.54,.26,.26,.26-2.72,3.63-7.38,6.22-12.2,5.02-.83-.21-1.91-.41-2.56-.98-.78-.7-1.38-1.93-1.72-2.9-1.64-4.75-.35-8.59,2.38-12.29,1.58,.51,2.49,5.08,2.57,6.76,.04,.83-.06,1.84-.26,2.58-.19,.67-.37,1.35-.56,2.02"/>
  <path class="cls-7" d="M123.89,34.05c-.33-.72-.66-1.43-.99-2.15-.86-2.4-1.17-5.29-.37-7.88,.26-.64,.52-1.28,.78-1.92,.27-.54,.65-1.07,.8-1.68,.79,.22,1.21,1.18,1.6,1.78,2.13,3.28,2.76,7.91,.81,11.55-.32,.59-.69,1.48-1.25,1.91-.92,.7-2.91,1.15-4.21,1.23-2.16,.13-4.41-.38-6.07-1.39-.87-.53-4.42-2.95-4.42-4.14,0-.08,.74-.3,.84-.33,1.05-.34,2.11-.34,3.2-.47,1.85-.23,3.87,.28,5.56,1.01,.49,.21,.97,.47,1.42,.75,.49,.31,.96,.65,1.41,1.02"/>
  <path class="cls-7" d="M14.12,43.41v-.11h.11c1.56-2.35,5.23-4.28,8.12-4.28,1.07-.48,3.55,.23,4.63,.23v.11c-.47,.63-.93,1.25-1.39,1.88-1.43,1.72-3.09,3.38-5.18,4.13-1.92,.69-5.83,1.15-7.7-.01-1.83-1.13-3.12-4.45-3.4-6.57-.12-.9,0-2.04,.1-2.92,.24-2.12,1.31-3.77,2-5.64,.73,.17,1.25,1.1,1.58,1.68,1.35,2.43,2.17,5.02,1.83,8.12"/>
  <path class="cls-7" d="M130.21,43.86c-1.83-4.5-1.32-9.96,2.14-13.42,1,.54,1.85,3.63,2.11,4.74,.81,3.5-.22,6.84-2.21,9.36-.28,.35-.64,.86-1.06,1.05-.73,.33-1.58,.44-2.45,.54-4.13,.46-7.48-1.34-9.97-4.27-.38-.45-1.65-1.93-1.65-2.52,.61-.06,1.21-.15,1.82-.2,.58-.05,1.16-.16,1.74-.12,1.97,.16,3.99,.53,5.72,1.54,.46,.27,.92,.58,1.34,.91,.29,.23,2.36,2.27,2.36,2.27"/>
  <path class="cls-7" d="M12.77,53.71c1.03-2.27,2.74-3.85,4.89-5.06,.73-.41,1.48-.76,2.28-1.03,.16-.05,2.09-.46,2.09-.38-.48,4.9-3.14,9.08-7.88,10.54-.8,.24-2,.62-2.94,.44-.93-.18-1.88-.8-2.63-1.36-2.99-2.24-4.37-5.54-4.37-9.5,0-.88-.04-2.01,.34-2.71,.17-.31,3.86,2.95,4.15,3.28,1.15,1.29,2.03,2.93,2.5,4.59,.32,1.11,.35,2.25,.46,3.39"/>
  <path class="cls-7" d="M132.35,56.15c0-1.29,.17-2.58,.57-3.81,.38-1.14,.89-2.25,1.57-3.24,.42-.61,.88-1.28,1.41-1.8,.52-.51,1.16-.93,1.74-1.37,.54-.41,1.26-.65,1.7-1.17,.42,.39,.39,1,.47,1.57,.51,3.42-.74,6.81-2.69,9.17-.95,1.14-2.99,2.68-4.46,2.93-.71,.12-1.74-.14-2.37-.33-2.81-.86-4.66-2.17-6.33-4.64-.54-.79-2.4-4.87-1.84-5.87,.05-.09,.3-.08,.39-.08,.68,.03,1.35,.3,1.92,.5,3.11,1.05,5.73,3.4,7.04,6.41"/>
  <path class="cls-7" d="M10.18,65.62c.86-2.3,2.38-4.05,4.33-5.64,.63-.51,1.38-.91,2.11-1.25,.42-.19,1.52-.81,2-.66,.2,1.64-.27,3.62-.86,5.14-.59,1.51-1.4,2.95-2.57,4.08-.66,.63-1.42,1.23-2.2,1.69-.87,.51-2.58,1.26-3.71,1.19-.9-.06-1.66-.52-2.41-.88-4.53-2.15-5.94-6.7-5.94-11.8,3.82,1.23,6.91,4.4,8.02,8.23,.2,.69,.44,1.6,.44,2.37"/>
  <path class="cls-7" d="M134.61,68.32c.35-3.78,2.22-6.94,5.31-9.06,.87-.6,1.97-.91,2.82-1.54,.65,.33,.43,1.5,.36,2.14-.38,3.45-1.48,6.41-4.18,8.58-1.02,.81-2.84,1.83-4.2,1.94-.95,.08-2.14-.47-2.92-.82-3.42-1.51-5.72-4.87-6.26-8.57-.1-.64-.55-1.85-.13-2.48,.21-.33,1.59,.31,1.78,.4,3.27,1.51,5.61,3.67,6.73,7.16"/>
  <path class="cls-7" d="M9.72,79.6c0-3.53,1.72-6.93,4.44-8.96,1-.75,2.09-1.32,3.12-1.97,.6,.28,.45,1.17,.45,1.8,0,3.55-.96,6.74-3.55,8.95-1.16,.99-2.69,2.04-4.24,2.25-.83,.11-1.87-.28-2.58-.51-3.67-1.22-6.15-4.53-7.02-8.21-.1-.42-.51-2.18-.25-2.6,.06-.11,.39-.08,.49-.07,.82,.11,1.59,.49,2.29,.81,2.86,1.32,5,3.72,6.18,6.59"/>
  <path class="cls-7" d="M134.32,79.73c.38-4.11,4.3-7.53,7.93-8.87,.52-.19,1.24-.51,1.83-.51-.31,4.84-2.67,9.45-7.33,10.95-.72,.23-1.65,.62-2.48,.58-.92-.05-1.86-.59-2.62-1-3.68-1.98-5.29-5.85-5.49-10.08,.03-.68,.07-1.35,.1-2.02,2.38,.76,4.77,2.71,6.14,4.88,.36,.56,.61,1.22,.92,1.78,.55,.99,.9,2.47,.93,3.71"/>
  <path class="cls-7" d="M13.78,90.76c-.14-.88-.4-1.76-.44-2.71-.13-2.71,.61-5.25,1.99-7.23,.69-1,1.61-1.84,2.39-2.8,1.39,.57,1.82,5.91,1.52,7.52-.45,2.43-1.33,4.28-3.07,6.02-.42,.42-.9,.89-1.43,1.13-.76,.34-1.9,.24-2.78,.21-4.46-.14-7.17-2.47-9.38-5.96-.26-.41-.95-1.45-.81-2.01,.06-.29,.79-.26,1.06-.27,4.08-.07,7.65,1.79,10.01,4.85"/>
  <path class="cls-7" d="M131.04,89.78c.47-.54,.94-1.09,1.41-1.63,1.22-1.15,2.71-1.99,4.28-2.57,.48-.18,.98-.31,1.48-.38,.86-.11,1.72-.16,2.58-.27,.5-.07,.99-.06,1.49-.03,0,.01,.1,0,.1,.01,0,.02,0,.04,0,.05,.04,0-.03,.04,0,.06-.12,.84-.73,1.62-1.13,2.34-1.96,3.48-5.05,5.39-9.13,5.78-.88,.08-2.09,.08-2.88-.25-.65-.27-1.24-.91-1.77-1.44-3.43-3.43-3.54-9.03-1.55-13.33,.49,.24,.92,.75,1.32,1.15,1.91,1.97,3.32,4.64,3.37,7.53,0,.73-.01,1.57-.08,2.25-.06,.43-.11,.87-.17,1.3"/>
  <path class="cls-7" d="M21.34,88.17c.75,.31,1.03,1.54,1.25,2.25,1.22,3.87,1.04,7.96-1.5,11.04-.74,.89-1.46,1.7-2.59,1.98-3.95,.96-7.57-.89-10.19-3.27-.83-.76-1.45-1.74-1.99-2.72-.15-.27-.28-.55-.43-.82-.04-.08-.08-.2-.14-.25,.22-.08,.41-.21,.63-.28,.61-.21,1.25-.09,1.88-.09,2.9,0,5.58,.99,7.63,2.7,.29,.24,2.52,2.67,2.52,2.67-.98-2.74-1.01-6.35,.12-9.02,.65-1.53,1.7-2.89,2.81-4.17Z"/>
  <path class="cls-7" d="M122.2,88.28c.72,.23,1.19,1,1.6,1.56,1.97,2.63,3.13,6.42,2.18,10.04-.05,.16-.46,1.49-.16,1.49,.35-.99,1.23-1.73,2.02-2.36,1.22-.97,2.66-1.81,4.15-2.26,.44-.13,.89-.24,1.35-.31,.48-.07,.96-.1,1.44-.16,.52-.06,1.02-.15,1.54-.13,.37,.02,.75,.04,1.12,.06,.1,0,.75-.02,.78,.09,.07,.29-.25,.8-.39,1.05-.19,.33-.41,.65-.63,.96-2.31,3.32-5.57,5.6-9.91,5.53-1.63-.03-2.74-.24-3.81-1.37-2.54-2.7-3.58-6.71-2.59-10.56,.32-1.28,1.02-2.37,1.32-3.62Z"/>
  <path class="cls-7" d="M25.85,97.53c.76,.27,1.27,1.48,1.56,2.14,.69,1.57,1.31,3.12,1.46,4.96,.22,2.73-.82,5.76-2.6,7.85-.43,.51-1.22,.58-1.83,.72-.77,.17-1.52,.35-2.31,.42-2.14,.17-4.44-.52-6.05-1.49-1.62-.98-3.59-2.59-4.6-4.26-.62-1,2.07-.85,2.56-.92,3.38-.5,6.76,.69,9.38,2.82,.22,.18,.98,.67,.98,.96h.11c-.32-.92-.78-1.83-.98-2.83-.8-3.97,.31-7.35,2.33-10.36Z"/>
  <path class="cls-7" d="M121.06,109.46c1.51-1.2,3.77-2.24,5.88-2.24,.27-.14,.78-.11,1.13-.11,.88-.01,1.83,0,2.61,.17,.6,.13,1.2,.26,1.79,.39,0,.15-.04,.11,.11,.11,0,.15,.04,.11-.11,.11-2.6,3.64-6.38,6.14-11.17,5.76-1.1-.09-2.43-.29-3.32-.8-.66-.38-1.21-1.4-1.57-2.01-2.38-4.1-1.46-9.7,1.39-13.21,.52,.28,.86,.97,1.13,1.47,.99,1.88,1.66,3.96,1.67,6.1,0,.66-.04,1.33-.13,1.98-.12,.86-.42,1.68-.66,2.5-.14,.34-.28,.68-.42,1.02"/>
  <path class="cls-9" d="M39.2,89.38h-4.58l-.66,2.17h-4.14l4.91-13.12h4.45l4.92,13.12h-4.25l-.65-2.17Zm-.86-2.85l-1.43-4.71-1.43,4.71h2.86Z"/>
  <path class="cls-9" d="M45.76,78.42h5.76l2.21,7.99,2.21-7.99h5.74v13.12h-3.58v-10l-2.77,10h-3.23l-2.76-10v10h-3.58v-13.12Z"/>
  <path class="cls-9" d="M63.52,78.42h3.99l2.78,9.45,2.75-9.45h3.88l-4.59,13.12h-4.14l-4.66-13.12Z"/>
  <path class="cls-9" d="M89.67,81.66m4.14,0,4.05,0v9.89h-4.05v-9.89m5.16,0,0,0-9.3,0v-3.23h12.34v3.23"/>
  <path class="cls-9" d="M102.36,87.21l3.85-.24c.08,.63,.26,1.1,.51,1.43,.42,.53,1.02,.8,1.81,.8,.58,0,1.03-.14,1.35-.41,.32-.27,.47-.59,.47-.95s-.15-.65-.45-.92c-.3-.27-1-.52-2.08-.76-1.78-.4-3.05-.93-3.81-1.6-.76-.66-1.15-1.51-1.15-2.54,0-.67,.2-1.31,.59-1.91,.39-.6,.98-1.07,1.76-1.41,.78-.34,1.86-.51,3.23-.51,1.68,0,2.96,.31,3.84,.94,.88,.62,1.41,1.62,1.57,2.98l-3.82,.22c-.1-.59-.31-1.03-.64-1.3-.33-.27-.78-.41-1.35-.41-.47,0-.83,.1-1.06,.3-.24,.2-.36,.44-.36,.73,0,.21,.1,.4,.29,.57,.19,.17,.64,.33,1.36,.48,1.77,.38,3.05,.77,3.81,1.16,.77,.39,1.33,.88,1.68,1.46,.35,.58,.52,1.23,.52,1.95,0,.84-.23,1.62-.7,2.33-.47,.71-1.12,1.25-1.96,1.62-.84,.37-1.89,.55-3.16,.55-2.24,0-3.79-.43-4.65-1.29-.86-.86-1.35-1.96-1.46-3.28Z"/>
  <path class="cls-2" d="M53.04,95.54l1.88,5.97h6.36l-5.1,3.84,1.97,6.1-5.1-3.75-5.08,3.75,1.99-6.1-5.17-3.85h6.34l1.92-5.97Z"/>
  <path class="cls-2" d="M31.95,66.2l-.19,2.64,1.22,.47-.17,2.38-7.34-3.38,.19-2.56,7.75-2.28-.18,2.44-1.27,.29Zm-1.66,.38l-2.78,.62,2.66,1.02,.12-1.64Z"/>
  <path class="cls-2" d="M26.22,60.78l.85-2.96,4.75,.13-4.09-2.41,.85-2.95,7.27,2.09-.53,1.83-5.55-1.59,5.14,3.02-.48,1.66-5.96-.17,5.55,1.59-.53,1.83-7.27-2.09Z"/>
  <path class="cls-2" d="M29.76,49.97l2.92-5.55,1.43,.75-1.82,3.47,1.07,.56,1.7-3.22,1.36,.72-1.69,3.22,1.31,.69,1.88-3.58,1.52,.8-2.97,5.65-6.7-3.52Z"/>
  <path class="cls-2" d="M40.09,46.82l-5.93-4.7,2.42-3.05c.45-.57,.84-.96,1.18-1.18,.33-.22,.71-.32,1.12-.29,.41,.02,.8,.19,1.18,.49,.33,.26,.56,.55,.68,.88,.13,.33,.17,.68,.12,1.04-.03,.23-.12,.51-.28,.83,.25-.16,.45-.26,.6-.3,.1-.03,.28-.04,.54-.05,.26,0,.45,.01,.57,.04l2.42,.47-1.64,2.07-2.59-.46c-.33-.06-.57-.07-.72-.03-.2,.06-.36,.17-.49,.34l-.13,.16,2.4,1.91-1.46,1.84Zm-2.06-4.63l.61-.77c.07-.08,.17-.27,.3-.55,.07-.14,.09-.29,.05-.44-.04-.16-.12-.29-.25-.39-.19-.15-.39-.21-.59-.17-.2,.04-.43,.23-.7,.56l-.64,.8,1.21,.96Z"/>
  <path class="cls-2" d="M40.27,35.01l1.72-1.6,5.16,5.53-1.72,1.6-5.16-5.53Z"/>
  <path class="cls-2" d="M50.76,32.38l2.05-.64c.21,.55,.3,1.07,.28,1.56-.03,.49-.17,.93-.42,1.34-.25,.41-.66,.8-1.22,1.18-.68,.46-1.3,.74-1.87,.84-.57,.1-1.17,0-1.83-.29-.65-.28-1.24-.82-1.77-1.59-.7-1.04-.97-2.02-.8-2.95,.17-.93,.76-1.74,1.77-2.42,.79-.53,1.51-.79,2.18-.78,.67,.01,1.34,.28,2,.79l-1.45,1.55c-.19-.15-.35-.25-.47-.3-.21-.07-.42-.1-.63-.07-.21,.02-.41,.1-.6,.23-.44,.3-.65,.7-.64,1.21,0,.38,.19,.85,.57,1.41,.47,.69,.9,1.1,1.28,1.21,.38,.11,.77,.04,1.15-.21,.37-.25,.58-.54,.62-.88,.05-.33-.02-.73-.2-1.18Z"/>
  <path class="cls-2" d="M58.94,30.43l-2.45,1,.12,1.3-2.21,.91-.25-8.07,2.38-.98,5.49,5.92-2.27,.93-.82-1.01Zm-1.08-1.32l-1.79-2.2,.27,2.83,1.53-.63Z"/>
  <path class="cls-2" d="M61.36,22.94l2.15-.37,3.52,3.64-.71-4.12,2.17-.37,1.28,7.45-2.17,.37-3.5-3.62,.7,4.1-2.17,.37-1.28-7.45Z"/>
  <path class="cls-2" d="M75.15,21.56l2.42,.35,.91,5.63,2.44-5.14,2.35,.34-3.86,7.08-2.51-.36-1.75-7.89Z"/>
  <path class="cls-2" d="M85.36,23.38l5.89,2.15-.55,1.52-3.69-1.34-.41,1.13,3.42,1.25-.53,1.45-3.42-1.25-.51,1.39,3.8,1.38-.59,1.61-6.01-2.19,2.59-7.1Z"/>
  <path class="cls-2" d="M93.27,26.45l6.07,3.67-.97,1.6-2.04-1.23-2.95,4.87-2-1.21,2.95-4.87-2.04-1.23,.97-1.59Z"/>
  <path class="cls-2" d="M100.86,31.21l4.66,4.19-1.08,1.2-2.91-2.62-.81,.9,2.71,2.44-1.03,1.15-2.71-2.44-.99,1.1,3,2.7-1.15,1.28-4.75-4.27,5.06-5.62Z"/>
  <path class="cls-2" d="M101.35,41.98l6.03-4.56,2.35,3.11c.44,.58,.72,1.05,.85,1.43,.13,.38,.13,.76,0,1.15-.13,.39-.38,.73-.77,1.02-.34,.25-.68,.4-1.03,.44-.35,.04-.7,0-1.04-.14-.22-.09-.46-.24-.73-.47,.09,.28,.14,.5,.14,.65,0,.11-.03,.29-.09,.54-.06,.25-.12,.43-.18,.54l-1.06,2.22-1.59-2.11,1.09-2.39c.14-.31,.21-.54,.21-.69,0-.21-.08-.39-.21-.56l-.12-.16-2.45,1.85-1.42-1.88Zm5-.83l.59,.79c.07,.08,.22,.23,.46,.43,.12,.11,.26,.16,.42,.16,.16,0,.31-.05,.44-.15,.19-.15,.3-.32,.31-.52,.01-.2-.11-.47-.37-.81l-.62-.82-1.23,.93Z"/>
  <path class="cls-2" d="M109.65,52.65l-1.16-2.37-1.29,.21-1.05-2.15,8.04-.77,1.13,2.31-5.56,5.86-1.07-2.2,.96-.89Zm1.25-1.16l2.09-1.93-2.81,.45,.72,1.48Z"/>
  <path class="cls-2" d="M117.26,54.32l.56,2.11-3.32,3.82,4.05-1.06,.56,2.13-7.32,1.92-.56-2.13,3.3-3.8-4.02,1.06-.56-2.13,7.32-1.92Z"/>
  <path class="cls-2" d="M114.44,64.1l.29,2.21c-.36,.07-.63,.19-.81,.35-.29,.26-.42,.61-.39,1.06,.02,.33,.12,.58,.29,.75,.17,.17,.36,.25,.56,.23,.2-.01,.37-.11,.51-.29,.14-.18,.26-.59,.35-1.23,.16-1.04,.41-1.79,.76-2.26,.35-.47,.82-.72,1.41-.76,.39-.03,.76,.06,1.12,.26,.36,.2,.66,.52,.89,.96,.23,.44,.37,1.05,.43,1.84,.07,.97-.06,1.72-.38,2.25-.32,.53-.87,.87-1.65,1.02l-.28-2.19c.33-.08,.57-.22,.71-.42,.14-.2,.2-.47,.18-.8-.02-.27-.09-.47-.21-.6-.12-.13-.27-.19-.44-.18-.12,0-.22,.08-.31,.2-.09,.12-.17,.39-.22,.81-.15,1.04-.32,1.78-.51,2.24-.19,.46-.45,.8-.77,1.02-.32,.22-.68,.35-1.09,.38-.49,.03-.94-.07-1.37-.31-.43-.24-.76-.59-1.01-1.06-.25-.47-.39-1.06-.45-1.8-.09-1.28,.1-2.19,.56-2.72,.46-.53,1.07-.85,1.83-.97Z"/>
</svg>