<?xml version="1.0" encoding="UTF-8"?>
<svg id="Layer_1" data-name="Layer 1" xmlns="http://www.w3.org/2000/svg" viewBox="0 0 222.12 212.64">
  <defs>
    <style>
      .cls-1 {
        fill: #e03a3e;
      }

      .cls-2, .cls-3, .cls-4, .cls-5, .cls-6, .cls-7, .cls-8, .cls-9, .cls-10, .cls-11, .cls-12, .cls-13, .cls-14, .cls-15 {
        fill: #fff;
      }

      .cls-16 {
        fill: #deb407;
      }

      .cls-3 {
        fill-rule: evenodd;
      }

      .cls-4 {
        font-size: 13.85px;
      }

      .cls-4, .cls-5, .cls-6, .cls-7, .cls-8, .cls-9, .cls-10, .cls-11, .cls-12, .cls-13, .cls-14, .cls-15 {
        font-family: Arial-Black, Arial;
        font-weight: 800;
      }

      .cls-5 {
        font-size: 13.85px;
      }

      .cls-6 {
        font-size: 13.85px;
      }

      .cls-7 {
        font-size: 13.85px;
      }

      .cls-8 {
        font-size: 13.85px;
      }

      .cls-9 {
        font-size: 13.85px;
      }

      .cls-10 {
        font-size: 13.85px;
      }

      .cls-11 {
        font-size: 13.85px;
      }

      .cls-12 {
        font-size: 13.85px;
      }

      .cls-13 {
        font-size: 13.85px;
      }

      .cls-14 {
        font-size: 13.85px;
      }

      .cls-17 {
        fill: #00529b;
      }

      .cls-18 {
        fill: #231f20;
      }

      .cls-15 {
        font-size: 13.85px;
      }
    </style>
  </defs>
  <path class="cls-18" d="M189.82,180.33c-14.64,.2-17.38-13.69-17.38-13.69-65.01,57.1-123.27-1.49-123.27-1.49-.78,15.49-15.15,15.02-15.15,15.02l.19,.09s73.8,72.81,155.41,.07"/>
  <path class="cls-17" d="M159.17,143.88c6.55,0,13.1,0,19.65,0,.45,0,2.09-.15,2.09,0,.65,.94-4.13,7.57-4.88,8.7-5.98,8.87-15.47,17.19-24.52,22.29-7.31,4.12-15.16,7.35-23.67,9.15-15.71,3.31-33.77,1.44-47.28-4.43-4.08-1.77-8.12-3.57-11.8-6.13-3.25-2.27-6.65-4.44-9.63-7.25-1.72-1.61-3.52-3.13-5.22-4.88-3.7-3.82-6.71-8.07-9.6-12.36-.7-1.03-2.4-3.35-2.54-4.59-.08-.6,2.42-.51,2.97-.51h24.7c24.45,0,48.89,0,73.34,0,5.47,0,10.93,0,16.4,0Z"/>
  <path class="cls-2" d="M140.7,147.64l2.89,9.22h9.81l-7.87,5.94,3.03,9.42-7.87-5.79-7.83,5.79,3.07-9.42-7.97-5.94h9.77l2.96-9.22Z"/>
  <path class="cls-2" d="M111.35,147.64l2.89,9.22h9.81l-7.87,5.94,3.03,9.42-7.87-5.79-7.83,5.79,3.06-9.42-7.97-5.94h9.77l2.96-9.22Z"/>
  <path class="cls-2" d="M121.13,121.17h14.62v4.31h-9.17v3.27h8.54v4.13h-8.54v3.99h9.45v4.58h-14.9v-20.28Z"/>
  <path class="cls-1" d="M189.77,118.45H33.6c-.22,0-.7,.11-.7-.17h-.17c-.16-1.98-.33-3.95-.49-5.93-.33-5.24-.2-11.04,.55-16.01,2.12-14.07,8.2-28.34,17.21-39.3,9.81-11.93,22.84-21.47,37.84-25.55,6.29-1.71,12.72-2.89,19.18-3.33,7.33-.49,14.69-.03,21.93,1.72,5.45,1.31,10.84,3.21,15.93,5.56,19.98,9.23,35.62,27.38,42.07,48.19,1.77,5.72,2.89,11.5,3.39,17.93,.2,2.56,.59,5.86,.23,8.55-.04,.87-.08,1.73-.12,2.6-.16,1.8-.32,3.6-.48,5.41-.01,.24-.04,.35-.19,.35"/>
  <path class="cls-17" d="M90.33,53.09c-1.63,.44-3.14,1.9-4.06,3.15-1.26,1.7-1.96,3.81-2.84,5.73-1.28,2.67-2.56,5.35-3.83,8.01-4.46,9.53-8.92,19.05-13.38,28.57-2.26,4.73-4.52,9.46-6.78,14.19-.19,.41-.75,1.41-.45,1.87v-.17c2.97-1.74,5.15-4.95,6.86-7.78,1.12-1.86,2.37-3.73,3.37-5.64,.39-.75,1.86-3.89,2.46-4.26,.78-.51,2.63-.25,3.66-.25-.9,1.93-1.8,3.85-2.71,5.78-1.68,3.45-3.28,6.92-4.95,10.41-.09,.18-1.02,1.92-.52,1.92v-.17c3.78-1.55,8.34-9.84,10.16-13.3,.56-1.07,1.64-3.73,2.59-4.39,.41-.29,2.83-.42,3.43-.42v.17h.17c-.47,2-1.79,4.01-2.68,5.8-1.65,3.47-3.29,6.93-4.95,10.4-.11,.2-1.03,1.91-.55,1.91v-.17c1.4-.58,2.54-1.93,3.53-3.09,3.02-3.54,4.98-7.54,7.33-11.43,.42-.7,1.18-2.77,1.83-3.18,.48-.32,2.85-.42,3.48-.42v.17h.17c-.36,1.53-1.29,3.03-1.98,4.41-1.6,3.35-3.21,6.7-4.81,10.04-.41,.87-1.73,2.94-1.73,3.84h.35v-.17c1.57-.44,2.84-1.87,3.88-3.09,1.89-2.22,3.46-4.6,4.9-7.07,1.63-2.81,3.45-7.87,6.59-9.4,1.04-.51,2.52-.74,3.75-.45,6.51,1.52,7.31,15,7.31,21.06,.54-.02,1.81,.12,2.12-.28,.32-.43,.44-4.07,.51-4.95,.39-5.07,1.58-15.63,7.98-15.83,1.9-.06,3.43,.73,4.61,1.96,1.66,1.72,2.54,3.96,3.63,5.98,1.98,3.69,4.23,7.49,7.36,10.53,.71,.69,1.98,1.88,3,1.88-2.11-4.46-4.22-8.92-6.33-13.38-.44-.9-2.19-3.96-2.19-4.91h.35v-.17c.92,.22,2.53-.08,3.3,.42,.63,.4,2.48,4.37,2.89,5.18,1.03,2.02,7.4,12.51,9.8,12.51v.17h.17c-.4-1.52-1.32-2.97-2.01-4.39-1.48-3.18-2.97-6.35-4.46-9.53-.46-1.1-1.52-2.45-1.61-3.7,.03-.12,.07-.25,.1-.37,.28-.04,.57-.08,.85-.11,.22-.01,.45-.02,.67-.04,.57-.03,1.52,.08,1.84,.45,1.29,1.47,2.02,3.6,2.95,5.28,2.3,4.17,4.94,8.58,8.77,11.74,.25,.2,1.07,.53,1.07,.85h.17c-.6-1.75-1.53-3.4-2.37-5.09-1.36-2.89-2.72-5.78-4.08-8.67-.57-1.27-1.34-2.53-1.77-3.87,0-.13-.01-.25-.02-.37,.03-.05,.07-.11,.09-.16,.45-.04,.91-.08,1.36-.12,.58-.01,1.6-.04,1.97,.28,1,.88,2.27,3.88,2.9,5.1,1.98,3.89,5.66,9.87,9.38,12.36,.19,.13,.35,.12,.35,.36,.17-.29,.16-.67,.05-.99-2.6-5.37-5.19-10.75-7.79-16.12-4.93-10.45-9.86-20.9-14.79-31.35-.79-1.72-1.59-3.44-2.38-5.16-1.06-2.43-1.98-5.28-4.29-7-1.11-.83-2.82-1.45-4.37-1.09-2.61,.6-3.9,3.14-4.26,5.63-.04,.98-.09,1.96-.14,2.94-.25,1.86-.54,3.6-1.25,5.19-.5,1.11-1.27,2.31-2.39,2.92-.45,.24-2.14,.57-2.33,.93-.53,.99-.15,2.27-.25,3.33-.03,.39-1.25-.69-1.3-.74-.21-.21-.78-.69-.92-1.03-.02-.05-.12-.18-.12-.22-.06,0,.04-.02-.01-.02,0,.07-.06,.23-.06,.28-.35,.98-.7,1.97-1.04,2.96-.61-.31-1.9-2.26-2.43-2.26-.47,0-1.6,3.24-1.75,3.64,0,0-.15,0-.15,0-.26,.06-1.1-1.76-1.18-2.02-.14-.45-.15-1.48-.73-1.62-.23,.43-.67,.73-.96,1.11-.28,.37-.45,.82-.79,1.14-.12,.12-.14,.17-.35,.17-.35-.98-.7-1.97-1.04-2.96h-.17c-.53,.46-1.52,1.57-2.26,1.57,0-.89,.27-2.78-.27-3.42-.31-.38-1.34-.35-1.8-.47-1.56-.42-2.82-1.51-3.55-2.97-.74-1.47-1.15-3.38-1.29-5.17-.16-1.96-.17-3.96-.83-5.84-.75-2.14-2.46-3.1-4.69-3.21-.37-.02-.74,.03-1.1,.13Z"/>
  <path class="cls-2" d="M108.65,54.8c-.06,.04-.11,.07-.15,.12-.66,.59-.84,1.54-1.57,2.07-1.66,1.19-4.22,.48-5.54,2.18-.19,.24-.34,.5-.47,.77-.06,.13-.39,.68-.34,.81,.08,.19,.68,.06,.84,.06,.48,0,.95,0,1.42,0,.86,.01,1.75,.05,2.58,.32,3.03,.96,.5,5.69-.07,7.5-.21,.65-.29,1.33-.31,2.01,0,.15,.01,1.68,.08,1.68h.17c.37-.47,.91-.87,1.56-.87,.21,.54,.42,1.08,.62,1.63,.09,.23,.02,1.02,.38,.83,.18-.1,.41-.58,.49-.75,.12-.24,.28-.46,.44-.67,.06-.08,1.07-1.14,1.19-.86,.15,.33,1.24,3.25,1.56,3.13,0-.34,.29-.73,.42-1.03,.16-.35,.32-.69,.51-1.03,.17-.3,.35-.62,.58-.88,.03-.03,.53-.49,.58-.36,.35,.85,1.27,1.38,1.58,2.26,.05,.03,.1,.03,.14,0,0-.24,.84-3.02,1.02-3.02,.29,0,.67,.52,.89,.7,.2,.17,.42,.32,.61,.52,.08,.09,.16,.19,.23,.28,.04,.05,.19,.19,.18,.26,.05-.03,.04-.1,.04-.14,.02-.22-.02-.45-.03-.66-.02-.23-.03-.47-.05-.7-.04-.45-.09-.9-.16-1.35-.12-.87-.27-1.73-.4-2.6-.08-.49-.15-.97-.21-1.46-.26-2.05-.5-4.07-.92-6.09-.43-2.04-.99-3.97-3.23-4.53-1-.25-3.61-.75-4.67-.09Z"/>
  <path class="cls-17" d="M100.45,98.21c-.15,.04-.3,.09-.43,.15-1.47,.69-2.33,2.42-2.87,3.86-1.27,3.38-1.48,7.11-1.94,10.66-.04,.3-.27,2.43-.05,2.43v.17c3.53,0,6.85,.17,10.44,.17,.27,0,1.04,.13,1.04-.17h.17c-.16-5.03,.13-11.98-3.04-16.23-.68-.91-2.21-1.32-3.32-1.06Z"/>
  <path class="cls-17" d="M120.27,98.14c-2.09,.51-3.14,3.26-3.62,5.05-.73,2.73-1.03,5.52-1.19,8.33-.02,.3-.18,4.15-.12,4.15,1.47,0,11.11,.17,11.4-.33,.42-.75,.06-2.53-.04-3.34-.49-3.72-.55-7.81-2.38-11.18-.63-1.16-1.65-2.63-3.1-2.74-.34-.03-.66,0-.95,.07Z"/>
  <path class="cls-16" d="M84.21,0c.77,.52,.46,2.17,.37,2.96-.67,6.02-3.92,11.87-9.42,14.62-.24,.11-1.04,.44-1.04,.71,0,.02,2.71-.35,2.92-.37,2.3-.11,4.74,.12,6.93,.84,2.07,.68,4.07,1.73,5.77,3.1,.94,.75,1.83,1.62,2.61,2.54,.38,.45,1.24,1.1,1.24,1.73h-.17c-1.4,.75-3.35,1.07-5.04,1.23-6.22,.59-11.27-.82-15.34-5.03-.73-.75-1.73-1.87-2.06-2.88-.4-1.23-.18-3.37-.02-4.65,.74-5.88,4.59-10.69,9.77-13.23,.97-.48,2.29-1.39,3.48-1.39v-.17Z"/>
  <path class="cls-16" d="M137.08,0c1.42,.34,2.77,1.01,4.03,1.68,5.09,2.67,9.15,7.29,9.78,13.29,.14,1.34,.44,3.33-.07,4.62-.52,1.29-1.79,2.51-2.83,3.53-4.59,4.45-10.52,5.03-17,3.88-.62-.11-2.78-.61-2.78-1.39,.89-.91,1.77-1.82,2.66-2.73,1.85-1.68,4.08-3,6.42-3.87,.7-.26,1.43-.45,2.16-.59,.5-.09,1.02-.06,1.52-.17,.88-.18,1.68-.26,2.58-.2,1.44,.09,2.87,.41,4.31,.41-1.36-1.11-3.1-1.86-4.46-3.03-4.4-3.77-6.32-9.35-6.32-15.43Z"/>
  <path class="cls-16" d="M66.29,5.92c.41,1.24,.33,3.05,.21,4.35-.36,3.98-1.62,8.08-4.28,11.14-.81,.94-1.78,1.75-2.74,2.52-.52,.42-1.06,.95-1.7,1.16-.02,.05-.02,.1,.01,.14,1.46-.04,2.95-.53,4.4-.67,3.5-.35,7.22,.53,10.27,2.24,.83,.46,1.62,.98,2.37,1.56,.46,.36,2.55,2.46,2.95,2.46v.52c-3.2,.99-6.42,2.42-10.26,2.24-4.28-.2-7.62-1.58-10.66-4.27-.72-.63-1.78-1.53-2.21-2.42-.44-.9-.5-2.26-.52-3.4-.08-4.96,1.53-8.82,4.5-12.2,2.18-2.49,5.09-3.66,7.67-5.38Z"/>
  <path class="cls-16" d="M155.34,6.27c1.5,.24,2.78,1.18,4,1.92,5.18,3.16,8.33,8.13,8.53,14.45,.09,2.92-.08,4.41-2.16,6.37-4.31,4.05-10.23,5.43-16.44,4.19-1.1-.34-2.2-.68-3.3-1.02-.58-.22-1.16-.43-1.75-.65-.12-.34-.16-.43,.08-.72,.72-.85,1.67-1.52,2.54-2.21,3.66-2.91,8.33-4.22,13.52-3.9,1.4,.09,2.71,.73,4.04,.73-1.12-1.19-2.72-1.98-3.94-3.2-3.02-3.03-4.48-6.77-5.05-11.09-.02-1.62-.04-3.24-.06-4.87Z"/>
  <path class="cls-16" d="M95.88,8.67c.85-.1,1.72-.14,2.6-.11,1.68,.06,3.34,.32,4.97,.73,.17,.04,3.58,1.15,3.2,1.5-1.06,.96-2.12,1.93-3.19,2.9-2.61,2.17-5.73,3.61-9.17,4.18-3.01,.49-7.93-.23-10.2-1.93-.06-.04-.22-.25-.32-.44-.06-.12-.15-.27,0-.27,.41-.77,1.1-1.34,1.77-1.89,3-2.49,6.51-4.23,10.33-4.68Z"/>
  <path class="cls-16" d="M121.6,8.58c1.37-.16,2.81,.02,4.15,.17,1.51,.17,3.01,.5,4.45,1.01,.8,.29,1.59,.64,2.34,1.05,.97,.53,2.06,1.17,2.89,1.91,.6,.53,1.19,1.08,1.79,1.62,.25,.23,.5,.46,.75,.69,.04,.04,.33,.24,.33,.3,0,.11-.02,.12-.02,.23-.06,0-.09,.12-.16,.12-1.02,.81-2.4,1.22-3.63,1.63-6.43,2.14-12.59-.65-17.12-4.53-.48-.41-2.21-1.83-2.21-2.5,1.88-.58,3.75-1.14,5.67-1.57,.25-.06,.51-.1,.77-.13Z"/>
  <path class="cls-16" d="M44.21,39.02c1.49-1.02,3.04-2,4.7-2.71,1.7-.73,3.53-.76,5.31-1.16,1.76-.39,3.59-.1,5.33,.27,1.44,.3,3,.63,4.33,1.3,.16,.08,1.06,.56,.68,.56-4.52,5.43-12.1,8.44-19.31,6.29-1.23-.37-2.77-.78-3.72-1.68-1.06-1-1.73-2.71-2.26-4.03-1.88-4.7-.8-10.64,1.48-14.67,.93-1.66,2.23-3.22,3.47-4.71,1.16,.37,1.44,1.82,1.85,2.81,2.28,5.57,1.32,12.11-1.59,16.92"/>
  <path class="cls-16" d="M178.29,39.37c-3.22-3.97-4.36-10.08-3.08-15.49,.45-1.92,1.39-3.61,2.03-5.41,1.12,.53,1.85,1.8,2.52,2.72,3.33,4.62,5.46,11.48,2.77,17.34-.53,1.14-1,2.43-1.9,3.37-1.15,1.18-3.11,1.63-4.64,2.08-4.41,1.27-9.45,.07-13.02-1.99-1.9-1.09-4.06-2.56-5.47-4.44-.07-.09-.43-.45-.09-.45,.1,0,.35-.21,.45-.27,.19-.1,.38-.19,.58-.27,.42-.18,.86-.32,1.29-.46,.94-.29,1.91-.52,2.89-.65,1.09-.15,2.19-.28,3.29-.28,3.19,.02,6.2,.71,9.02,2.24,.75,.41,1.48,.86,2.18,1.33"/>
  <path class="cls-16" d="M31.51,51.91c3.23-2.43,6.5-4.81,10.96-4.87,3.14-.05,6.28,.1,8.81,1.17,.05,.02,.84,.4,.41,.4-4.2,5.61-11.38,9.61-18.81,7.75-1.28-.32-2.95-.63-3.94-1.52-1.21-1.08-2.14-2.98-2.65-4.48-2.53-7.34-.53-13.27,3.66-18.99,2.44,.78,3.84,7.84,3.96,10.45,.06,1.29-.09,2.84-.4,3.98-.29,1.04-.58,2.08-.86,3.13"/>
  <path class="cls-16" d="M190.99,52.61c-.51-1.11-1.02-2.22-1.53-3.33-1.33-3.71-1.81-8.18-.57-12.18,.4-.99,.8-1.98,1.21-2.97,.42-.83,1-1.65,1.23-2.6,1.22,.34,1.86,1.82,2.47,2.75,3.28,5.07,4.26,12.23,1.25,17.84-.5,.91-1.07,2.28-1.93,2.94-1.42,1.08-4.49,1.77-6.49,1.91-3.34,.21-6.8-.59-9.37-2.14-1.35-.82-6.81-4.56-6.81-6.4,0-.12,1.14-.46,1.3-.51,1.62-.52,3.26-.52,4.93-.73,2.85-.35,5.97,.43,8.57,1.57,.76,.33,1.49,.72,2.19,1.16,.76,.47,1.49,1.01,2.18,1.58"/>
  <path class="cls-16" d="M21.77,67.06v-.17h.17c2.41-3.63,8.07-6.62,12.52-6.62,1.65-.74,5.47,.35,7.13,.35v.17c-.72,.97-1.43,1.94-2.15,2.91-2.2,2.66-4.76,5.22-7.99,6.38-2.96,1.06-8.99,1.77-11.87-.02-2.82-1.75-4.8-6.88-5.23-10.16-.18-1.38,0-3.16,.15-4.51,.37-3.28,2.01-5.82,3.09-8.71,1.12,.26,1.93,1.69,2.43,2.6,2.08,3.76,3.34,7.75,2.81,12.55"/>
  <path class="cls-16" d="M200.73,67.76c-2.83-6.95-2.04-15.38,3.3-20.73,1.54,.83,2.85,5.61,3.25,7.32,1.26,5.41-.34,10.56-3.41,14.46-.43,.54-1,1.33-1.64,1.63-1.12,.5-2.44,.67-3.78,.83-6.37,.71-11.52-2.08-15.36-6.59-.59-.69-2.55-2.99-2.55-3.89,.94-.1,1.87-.23,2.81-.31,.89-.07,1.78-.25,2.68-.18,3.04,.24,6.15,.82,8.82,2.37,.71,.41,1.41,.89,2.06,1.41,.44,.35,3.64,3.5,3.64,3.5"/>
  <path class="cls-16" d="M19.69,82.98c1.59-3.5,4.23-5.95,7.53-7.82,1.12-.63,2.29-1.18,3.51-1.59,.26-.09,3.23-.72,3.22-.59-.73,7.57-4.85,14.03-12.14,16.28-1.24,.38-3.09,.96-4.53,.68-1.43-.28-2.9-1.24-4.06-2.11-4.61-3.47-6.74-8.56-6.74-14.68,0-1.37-.06-3.11,.52-4.18,.26-.48,5.95,4.56,6.4,5.07,1.77,2,3.12,4.52,3.86,7.09,.5,1.72,.54,3.47,.71,5.24"/>
  <path class="cls-16" d="M204.03,86.75c0-1.99,.26-3.99,.88-5.89,.58-1.76,1.38-3.47,2.42-5,.64-.95,1.36-1.98,2.18-2.78,.79-.78,1.79-1.43,2.67-2.11,.83-.63,1.95-1,2.62-1.81,.64,.6,.6,1.54,.73,2.43,.79,5.28-1.14,10.53-4.15,14.17-1.46,1.76-4.62,4.14-6.87,4.53-1.09,.18-2.69-.22-3.65-.52-4.33-1.33-7.18-3.35-9.76-7.17-.83-1.22-3.7-7.53-2.83-9.06,.08-.14,.46-.13,.6-.12,1.05,.05,2.08,.47,2.97,.77,4.8,1.63,8.83,5.25,10.86,9.9"/>
  <path class="cls-16" d="M15.69,101.38c1.33-3.55,3.67-6.26,6.68-8.71,.97-.8,2.12-1.41,3.26-1.93,.65-.3,2.35-1.26,3.08-1.01,.31,2.53-.42,5.59-1.33,7.93-.9,2.33-2.16,4.56-3.97,6.31-1.01,.97-2.18,1.9-3.39,2.61-1.34,.79-3.98,1.95-5.72,1.84-1.38-.09-2.56-.81-3.72-1.35-6.98-3.31-9.16-10.34-9.16-18.24,5.89,1.89,10.66,6.8,12.36,12.71,.3,1.07,.68,2.47,.68,3.66"/>
  <path class="cls-16" d="M207.51,105.56c.54-5.84,3.42-10.72,8.18-13.99,1.35-.93,3.03-1.4,4.34-2.38,1.01,.51,.66,2.32,.55,3.31-.59,5.33-2.28,9.91-6.44,13.25-1.58,1.26-4.37,2.82-6.48,3-1.46,.13-3.3-.73-4.5-1.26-5.28-2.33-8.82-7.53-9.65-13.24-.15-.99-.85-2.86-.2-3.84,.33-.5,2.45,.47,2.75,.61,5.04,2.34,8.64,5.67,10.37,11.06"/>
  <path class="cls-16" d="M14.99,122.98c0-5.45,2.66-10.71,6.85-13.85,1.54-1.16,3.22-2.04,4.8-3.05,.92,.42,.69,1.81,.69,2.79,0,5.48-1.48,10.41-5.47,13.83-1.79,1.52-4.15,3.16-6.54,3.48-1.28,.17-2.87-.43-3.98-.79-5.66-1.89-9.48-7.01-10.82-12.68-.16-.65-.79-3.37-.39-4.01,.1-.17,.6-.13,.76-.11,1.27,.16,2.45,.76,3.52,1.26,4.41,2.04,7.72,5.75,9.52,10.17"/>
  <path class="cls-16" d="M207.07,123.18c.59-6.36,6.63-11.64,12.23-13.71,.8-.3,1.91-.78,2.82-.78-.48,7.48-4.12,14.6-11.3,16.91-1.1,.35-2.54,.96-3.83,.89-1.41-.08-2.87-.91-4.04-1.55-5.67-3.06-8.16-9.04-8.46-15.57,.05-1.04,.1-2.08,.15-3.13,3.67,1.18,7.35,4.18,9.47,7.54,.55,.87,.94,1.88,1.42,2.75,.85,1.53,1.38,3.81,1.44,5.73"/>
  <path class="cls-16" d="M21.25,140.22c-.21-1.36-.61-2.72-.67-4.19-.2-4.18,.95-8.11,3.07-11.17,1.07-1.55,2.48-2.85,3.69-4.33,2.15,.88,2.8,9.13,2.34,11.62-.7,3.76-2.05,6.61-4.73,9.31-.65,.64-1.39,1.38-2.2,1.75-1.17,.53-2.93,.36-4.28,.33-6.87-.22-11.05-3.82-14.46-9.21-.4-.64-1.46-2.24-1.26-3.1,.1-.44,1.22-.4,1.63-.41,6.29-.1,11.79,2.77,15.44,7.5"/>
  <path class="cls-16" d="M202.01,138.71c.72-.84,1.45-1.67,2.17-2.51,1.89-1.78,4.18-3.07,6.6-3.97,.74-.27,1.51-.48,2.29-.58,1.32-.17,2.65-.24,3.97-.42,.77-.1,1.52-.09,2.3-.05,0,.02,.15,0,.15,.02,0,.03,.01,.06,0,.08,.06,.01-.04,.06,0,.09-.19,1.3-1.12,2.5-1.74,3.62-3.03,5.38-7.79,8.32-14.07,8.93-1.35,.12-3.23,.12-4.45-.38-1-.42-1.91-1.41-2.73-2.23-5.29-5.3-5.46-13.95-2.39-20.59,.76,.37,1.42,1.15,2.03,1.78,2.95,3.04,5.12,7.16,5.19,11.63,.01,1.13-.02,2.43-.13,3.48-.09,.67-.17,1.34-.27,2.01"/>
  <path class="cls-16" d="M32.9,136.22c1.15,.48,1.59,2.39,1.94,3.47,1.88,5.98,1.6,12.29-2.32,17.05-1.14,1.38-2.26,2.62-3.99,3.05-6.09,1.48-11.66-1.37-15.71-5.05-1.28-1.17-2.24-2.69-3.07-4.2-.23-.42-.43-.85-.67-1.27-.07-.12-.12-.3-.22-.39,.33-.12,.63-.32,.97-.43,.93-.32,1.93-.14,2.89-.14,4.47,0,8.6,1.54,11.77,4.16,.44,.37,3.89,4.12,3.89,4.12-1.51-4.23-1.56-9.8,.19-13.93,.99-2.36,2.61-4.47,4.33-6.45Z"/>
  <path class="cls-16" d="M188.38,136.39c1.1,.35,1.83,1.55,2.47,2.41,3.04,4.06,4.82,9.91,3.35,15.5-.07,.25-.7,2.3-.25,2.3,.54-1.53,1.89-2.68,3.11-3.65,1.87-1.5,4.09-2.79,6.4-3.5,.68-.21,1.37-.37,2.08-.47,.74-.11,1.48-.16,2.21-.25,.8-.1,1.57-.23,2.38-.2,.58,.03,1.15,.06,1.72,.09,.15,0,1.16-.03,1.2,.14,.1,.44-.38,1.24-.6,1.62-.29,.52-.63,1-.97,1.49-3.55,5.12-8.59,8.64-15.28,8.54-2.52-.04-4.22-.37-5.87-2.12-3.91-4.16-5.51-10.37-4-16.31,.5-1.98,1.57-3.67,2.04-5.59Z"/>
  <path class="cls-2" d="M60.44,138.09h-7.06l-1.02,3.36h-6.38l7.56-20.28h6.87l7.58,20.28h-6.54l-1.01-3.36Zm-1.32-4.4l-2.2-7.27-2.2,7.27h4.41Z"/>
  <path class="cls-2" d="M70.55,121.17h8.88l3.4,12.34,3.41-12.34h8.85v20.28h-5.51v-15.45l-4.27,15.45h-4.99l-4.26-15.45v15.45h-5.51v-20.28Z"/>
  <path class="cls-2" d="M97.92,121.17h6.16l4.28,14.59,4.24-14.59h5.98l-7.08,20.28h-6.38l-7.19-20.28Z"/>
  <path class="cls-2" d="M138.24,126.16m6.39,0,6.25,0v15.29h-6.25v-15.29m7.95,0,0,0-14.33,0v-4.99h19.02v4.99"/>
  <path class="cls-2" d="M157.8,134.74l5.93-.37c.13,.97,.4,1.71,.79,2.22,.65,.82,1.58,1.23,2.78,1.23,.9,0,1.59-.21,2.08-.63,.49-.42,.73-.91,.73-1.46s-.23-1-.7-1.41c-.46-.42-1.53-.81-3.21-1.18-2.75-.62-4.7-1.44-5.87-2.46-1.18-1.03-1.77-2.33-1.77-3.92,0-1.04,.3-2.03,.9-2.96,.6-.93,1.51-1.66,2.72-2.19,1.21-.53,2.87-.8,4.98-.8,2.58,0,4.56,.48,5.91,1.45,1.36,.96,2.17,2.5,2.42,4.6l-5.89,.35c-.15-.92-.48-1.59-.98-2.01-.5-.42-1.2-.63-2.08-.63-.73,0-1.27,.16-1.64,.47-.37,.31-.55,.69-.55,1.13,0,.32,.15,.62,.45,.87,.29,.27,.99,.52,2.1,.75,2.74,.59,4.7,1.19,5.88,1.8,1.18,.6,2.04,1.36,2.58,2.25,.54,.9,.81,1.9,.81,3.01,0,1.31-.36,2.51-1.08,3.61-.72,1.1-1.72,1.94-3.01,2.5-1.29,.57-2.92,.85-4.88,.85-3.45,0-5.84-.66-7.16-1.99-1.33-1.33-2.08-3.02-2.25-5.07Z"/>
  <path class="cls-2" d="M81.77,147.6l2.89,9.22h9.81l-7.87,5.94,3.03,9.42-7.87-5.8-7.83,5.8,3.06-9.42-7.97-5.94h9.77l2.96-9.22Z"/>
  <path class="cls-2" d="M49.25,102.28l-.3,4.07,1.88,.72-.27,3.68-11.31-5.22,.29-3.96,11.95-3.52-.27,3.77-1.96,.44Zm-2.56,.58l-4.28,.96,4.09,1.58,.19-2.54Z"/>
  <path class="cls-2" d="M40.42,93.9l1.31-4.57,7.32,.21-6.31-3.72,1.31-4.55,11.21,3.23-.81,2.83-8.55-2.46,7.92,4.67-.73,2.56-9.19-.26,8.55,2.46-.81,2.83-11.21-3.23Z"/>
  <path class="cls-2" d="M45.88,77.2l4.5-8.57,2.21,1.16-2.81,5.36,1.64,.87,2.61-4.98,2.1,1.11-2.61,4.98,2.02,1.06,2.9-5.52,2.35,1.23-4.58,8.73-10.32-5.43Z"/>
  <path class="cls-2" d="M61.81,72.33l-9.14-7.26,3.74-4.71c.69-.87,1.3-1.48,1.81-1.83,.52-.34,1.09-.5,1.72-.46,.63,.04,1.24,.29,1.82,.75,.51,.4,.86,.86,1.06,1.37,.2,.51,.26,1.04,.19,1.6-.04,.36-.19,.78-.43,1.28,.38-.25,.69-.4,.92-.47,.16-.04,.44-.07,.84-.07,.4,0,.7,.02,.88,.06l3.73,.73-2.53,3.2-3.99-.71c-.51-.1-.88-.11-1.11-.05-.3,.09-.56,.27-.76,.53l-.2,.25,3.71,2.95-2.25,2.84Zm-3.18-7.16l.94-1.19c.1-.13,.26-.41,.47-.85,.11-.22,.14-.44,.08-.69-.06-.24-.19-.44-.39-.6-.3-.23-.6-.32-.9-.26-.31,.06-.66,.35-1.07,.87l-.98,1.24,1.86,1.48Z"/>
  <path class="cls-2" d="M62.08,54.09l2.65-2.47,7.95,8.54-2.65,2.48-7.95-8.54Z"/>
  <path class="cls-2" d="M78.25,50.03l3.16-1c.32,.86,.46,1.66,.42,2.41-.04,.75-.26,1.44-.65,2.07-.39,.63-1.02,1.24-1.88,1.83-1.05,.71-2.01,1.14-2.88,1.29-.87,.15-1.81,0-2.81-.44-1-.44-1.91-1.26-2.73-2.46-1.08-1.6-1.5-3.12-1.23-4.55,.27-1.44,1.18-2.68,2.73-3.74,1.21-.83,2.34-1.23,3.37-1.21,1.03,.02,2.06,.42,3.09,1.22l-2.24,2.39c-.29-.23-.54-.39-.73-.46-.32-.12-.64-.16-.97-.12-.32,.04-.63,.16-.93,.36-.67,.46-1,1.08-.99,1.87,0,.59,.3,1.31,.88,2.18,.73,1.07,1.39,1.69,1.98,1.87,.59,.18,1.18,.07,1.77-.33,.57-.39,.89-.84,.96-1.36,.07-.52-.03-1.13-.31-1.83Z"/>
  <path class="cls-2" d="M90.86,47.01l-3.77,1.55,.19,2.01-3.41,1.4-.38-12.47,3.67-1.51,8.47,9.15-3.49,1.44-1.27-1.56Zm-1.66-2.04l-2.77-3.41,.41,4.37,2.35-.97Z"/>
  <path class="cls-2" d="M94.59,35.44l3.32-.57,5.42,5.62-1.09-6.37,3.35-.58,1.97,11.51-3.35,.58-5.39-5.59,1.08,6.33-3.35,.57-1.97-11.51Z"/>
  <path class="cls-2" d="M115.86,33.32l3.73,.54,1.4,8.7,3.76-7.95,3.62,.53-5.95,10.94-3.86-.56-2.69-12.19Z"/>
  <path class="cls-2" d="M131.6,36.12l9.09,3.31-.85,2.35-5.68-2.07-.63,1.75,5.28,1.92-.81,2.24-5.28-1.93-.78,2.15,5.85,2.13-.91,2.49-9.26-3.38,3.99-10.98Z"/>
  <path class="cls-2" d="M143.79,40.87l9.36,5.67-1.49,2.46-3.14-1.9-4.55,7.53-3.08-1.87,4.55-7.53-3.14-1.9,1.49-2.46Z"/>
  <path class="cls-2" d="M155.48,48.21l7.19,6.48-1.67,1.85-4.49-4.05-1.24,1.38,4.17,3.76-1.59,1.77-4.17-3.76-1.53,1.7,4.63,4.17-1.77,1.97-7.32-6.6,7.8-8.68Z"/>
  <path class="cls-2" d="M156.24,64.86l9.3-7.04,3.62,4.8c.67,.89,1.11,1.63,1.31,2.21,.2,.59,.21,1.18,0,1.78-.19,.6-.59,1.12-1.18,1.57-.52,.39-1.04,.62-1.59,.68-.54,.06-1.07-.01-1.6-.22-.33-.13-.71-.38-1.13-.73,.14,.43,.22,.77,.22,1.01,0,.16-.04,.44-.14,.83-.1,.39-.19,.67-.27,.84l-1.64,3.44-2.46-3.26,1.68-3.69c.22-.47,.33-.83,.32-1.06-.01-.32-.12-.61-.32-.87l-.19-.25-3.78,2.86-2.18-2.89Zm7.71-1.29l.91,1.21c.1,.13,.33,.35,.7,.67,.18,.16,.4,.24,.64,.25,.25,0,.47-.07,.68-.23,.3-.23,.46-.5,.48-.81,.02-.31-.17-.73-.57-1.26l-.95-1.26-1.9,1.44Z"/>
  <path class="cls-2" d="M169.04,81.34l-1.79-3.67-1.99,.32-1.62-3.32,12.4-1.19,1.74,3.57-8.57,9.05-1.66-3.4,1.47-1.37Zm1.92-1.79l3.21-2.99-4.33,.7,1.12,2.29Z"/>
  <path class="cls-2" d="M180.78,83.93l.86,3.27-5.12,5.9,6.24-1.64,.86,3.29-11.28,2.97-.86-3.29,5.09-5.87-6.2,1.63-.86-3.29,11.28-2.97Z"/>
  <path class="cls-2" d="M176.42,99.03l.46,3.43c-.55,.11-.97,.29-1.25,.54-.45,.4-.65,.95-.6,1.64,.04,.51,.18,.9,.44,1.16,.26,.26,.55,.38,.87,.36,.3-.02,.56-.17,.78-.45,.22-.28,.4-.91,.55-1.9,.24-1.61,.63-2.77,1.18-3.48,.54-.72,1.27-1.11,2.18-1.18,.6-.04,1.18,.09,1.73,.4,.56,.31,1.01,.8,1.37,1.48,.35,.68,.57,1.62,.66,2.84,.11,1.49-.09,2.65-.59,3.47-.5,.82-1.34,1.35-2.54,1.58l-.43-3.38c.51-.13,.88-.35,1.09-.65,.22-.31,.31-.72,.27-1.23-.03-.42-.14-.73-.33-.93-.19-.2-.42-.29-.67-.27-.19,.01-.35,.11-.48,.3-.14,.19-.26,.6-.34,1.25-.23,1.6-.49,2.75-.79,3.46-.3,.71-.7,1.23-1.19,1.58-.49,.35-1.05,.54-1.69,.59-.75,.05-1.45-.11-2.11-.47-.66-.37-1.18-.92-1.55-1.64-.38-.72-.61-1.65-.69-2.78-.14-1.98,.15-3.39,.86-4.2,.71-.82,1.65-1.32,2.82-1.5Z"/>
  <path class="cls-18" d="M19.23,166.64s92.67,103.14,183.83-.29c0,0-18.24,.63-19.76-11.7,0,0-65.33,84.02-143.96-1.16,0,0-.7,15.5-20.1,13.15Z"/>
  <g>
    <text class="cls-5" transform="translate(31.71 170.45) rotate(43.46) scale(1 1.08)"><tspan x="0" y="0">A</tspan></text>
    <text class="cls-10" transform="translate(40.16 178.43) rotate(37.5) scale(1 1.08)"><tspan x="0" y="0">M</tspan></text>
    <text class="cls-6" transform="translate(51.16 186.76) rotate(32.34) scale(1 1.08)"><tspan x="0" y="0">V</tspan></text>
    <text class="cls-14" transform="translate(60.79 192.82) rotate(27.65) scale(1 1.08)"><tspan x="0" y="0">E</tspan></text>
    <text class="cls-11" transform="translate(70.21 197.73) rotate(22.76) scale(1 1.08)"><tspan x="0" y="0">T</tspan></text>
    <text class="cls-9" transform="translate(80.07 201.84) rotate(17.41) scale(1 1.08)"><tspan x="0" y="0">S</tspan></text>
    <text class="cls-15" transform="translate(139.72 204.58) rotate(-19.11) scale(1 1.08)"><tspan x="0" y="0">R</tspan></text>
    <text class="cls-4" transform="translate(150.42 200.72) rotate(-24) scale(1 1.08)"><tspan x="0" y="0">I</tspan></text>
    <text class="cls-7" transform="translate(155.9 198.36) rotate(-28.54) scale(1 1.08)"><tspan x="0" y="0">D</tspan></text>
    <text class="cls-8" transform="translate(165.92 192.85) rotate(-33.78) scale(1 1.08)"><tspan x="0" y="0">E</tspan></text>
    <text class="cls-12" transform="translate(174.71 186.94) rotate(-38.39) scale(1 1.08)"><tspan x="0" y="0">R</tspan></text>
    <text class="cls-13" transform="translate(183.54 179.9) rotate(-42.42) scale(1 1.08)"><tspan x="0" y="0">S</tspan></text>
  </g>
  <g>
    <polygon class="cls-3" points="103.78 208.35 103.4 208.33 103.04 208.27 102.69 208.19 102.36 208.06 102.04 207.91 101.74 207.73 101.45 207.52 101.21 207.29 100.96 207.03 100.75 206.75 100.57 206.44 100.43 206.14 100.3 205.8 100.21 205.45 100.15 205.1 100.14 204.72 100.17 204.25 100.26 203.78 100.41 203.34 100.61 202.93 100.85 202.56 101.14 202.2 101.47 201.89 101.84 201.63 101.53 201.75 101.22 201.89 100.93 202.05 100.67 202.23 100.41 202.43 100.17 202.66 99.94 202.9 99.74 203.16 99.55 203.44 99.39 203.71 99.26 204.02 99.12 204.33 99.04 204.65 98.96 204.98 98.93 205.32 98.91 205.68 98.93 206.12 99 206.54 99.11 206.93 99.24 207.32 99.42 207.7 99.63 208.06 99.87 208.38 100.15 208.67 100.46 208.95 100.78 209.2 101.13 209.41 101.5 209.58 101.89 209.72 102.3 209.83 102.72 209.89 103.16 209.91 103.6 209.89 104.02 209.83 104.41 209.72 104.8 209.58 105.18 209.41 105.53 209.2 105.86 208.95 106.15 208.67 106.43 208.38 106.67 208.06 106.88 207.7 107.06 207.32 107.19 206.93 107.31 206.54 107.37 206.12 107.39 205.68 107.39 205.57 107.39 205.45 107.39 205.34 107.37 205.23 107.31 205.55 107.22 205.88 107.11 206.17 106.96 206.46 106.8 206.74 106.61 207 106.39 207.23 106.17 207.45 105.93 207.65 105.66 207.83 105.37 207.97 105.08 208.1 104.77 208.22 104.44 208.28 104.12 208.33 103.78 208.35 103.78 208.35"/>
    <polygon class="cls-3" points="125.85 208.2 125.47 208.19 125.12 208.12 124.77 208.04 124.43 207.91 124.12 207.76 123.81 207.58 123.54 207.37 123.28 207.13 123.05 206.89 122.84 206.59 122.66 206.3 122.51 205.97 122.38 205.65 122.3 205.29 122.24 204.93 122.22 204.56 122.25 204.09 122.35 203.62 122.5 203.19 122.69 202.77 122.94 202.4 123.23 202.05 123.55 201.75 123.93 201.49 123.62 201.6 123.31 201.75 123.02 201.91 122.74 202.09 122.48 202.28 122.25 202.51 122.03 202.75 121.81 203 121.64 203.28 121.47 203.57 121.33 203.86 121.21 204.17 121.11 204.49 121.03 204.82 121 205.16 120.98 205.52 121 205.96 121.07 206.38 121.18 206.79 121.33 207.18 121.51 207.53 121.72 207.89 121.96 208.22 122.24 208.51 122.53 208.79 122.85 209.03 123.21 209.24 123.57 209.42 123.96 209.57 124.37 209.68 124.79 209.75 125.23 209.76 125.67 209.75 126.09 209.68 126.5 209.57 126.89 209.42 127.25 209.24 127.6 209.03 127.93 208.79 128.24 208.51 128.5 208.22 128.74 207.89 128.95 207.53 129.13 207.18 129.28 206.79 129.39 206.38 129.46 205.96 129.47 205.52 129.47 205.41 129.47 205.29 129.46 205.19 129.46 205.08 129.39 205.41 129.31 205.71 129.18 206.02 129.04 206.31 128.87 206.57 128.69 206.84 128.48 207.08 128.24 207.29 128 207.5 127.73 207.68 127.44 207.83 127.15 207.96 126.84 208.07 126.51 208.14 126.19 208.19 125.85 208.2 125.85 208.2"/>
    <polygon class="cls-3" points="112.51 201.86 112.54 201.84 112.64 201.79 112.75 201.73 112.88 201.63 113.01 201.49 113.1 201.34 113.13 201.14 113.08 200.92 112.95 200.62 112.77 200.25 112.56 199.84 112.33 199.42 112.12 199.03 111.94 198.72 111.81 198.49 111.76 198.41 111.68 198.41 111.49 198.39 111.16 198.36 110.74 198.33 110.23 198.3 109.66 198.27 109.06 198.22 108.45 198.18 107.81 198.13 107.19 198.1 106.62 198.07 106.09 198.05 105.63 198.04 105.26 198.04 105 198.05 104.87 198.07 104.79 198.1 104.64 198.15 104.47 198.2 104.28 198.25 104.05 198.3 103.81 198.35 103.55 198.39 103.3 198.43 103.04 198.46 102.8 198.48 102.56 198.49 102.36 198.49 102.18 198.48 102.04 198.43 101.92 198.38 101.87 198.3 101.78 198.12 101.61 197.96 101.42 197.81 101.21 197.68 101 197.56 100.82 197.48 100.69 197.44 100.64 197.42 98.41 198.3 98.39 198.36 98.33 198.54 98.25 198.8 98.17 199.11 98.1 199.45 98.07 199.79 98.1 200.1 98.18 200.35 98.33 200.44 98.61 200.52 99.01 200.61 99.52 200.67 100.1 200.72 100.75 200.77 101.43 200.8 102.13 200.84 102.83 200.85 103.5 200.87 104.12 200.88 104.69 200.88 105.14 200.9 105.52 200.9 105.74 200.9 105.82 200.9 105.76 200.88 105.57 200.85 105.26 200.78 104.87 200.7 104.4 200.61 103.87 200.49 103.32 200.36 102.75 200.23 102.17 200.1 101.61 199.97 101.09 199.84 100.62 199.71 100.23 199.6 99.92 199.48 99.73 199.4 99.66 199.32 99.7 199.18 99.74 199 99.84 198.82 99.95 198.62 100.05 198.46 100.15 198.31 100.2 198.22 100.23 198.18 101.14 199.21 101.24 199.21 101.52 199.19 101.94 199.18 102.49 199.14 103.14 199.13 103.87 199.09 104.66 199.08 105.47 199.04 106.28 199.04 107.08 199.03 107.83 199.04 108.51 199.06 109.09 199.09 109.55 199.16 109.88 199.22 110.04 199.32 110.25 199.6 110.58 199.96 110.97 200.38 111.4 200.8 111.81 201.21 112.17 201.55 112.41 201.78 112.51 201.86 112.51 201.86"/>
    <polygon class="cls-3" points="101.71 203.47 101.71 205.29 101.81 205.32 102.07 205.41 102.49 205.52 103.04 205.68 103.69 205.86 104.43 206.07 105.21 206.3 106.02 206.53 106.85 206.75 107.66 206.97 108.43 207.16 109.13 207.34 109.76 207.49 110.27 207.58 110.64 207.65 110.85 207.65 111.03 207.63 111.27 207.62 111.62 207.62 112.01 207.62 112.45 207.63 112.92 207.65 113.42 207.67 113.94 207.68 114.45 207.7 114.93 207.7 115.41 207.7 115.83 207.68 116.2 207.65 116.51 207.6 116.74 207.53 116.89 207.45 117 207.32 117.15 207.1 117.32 206.82 117.54 206.48 117.76 206.09 117.99 205.68 118.24 205.24 118.46 204.8 118.69 204.36 118.9 203.96 119.1 203.57 119.24 203.23 119.36 202.93 119.42 202.7 119.46 202.56 119.41 202.51 119.29 202.49 119.08 202.44 118.81 202.38 118.48 202.28 118.1 202.18 117.7 202.05 117.28 201.92 116.85 201.79 116.41 201.66 116.01 201.53 115.63 201.4 115.29 201.31 115 201.21 114.79 201.14 114.64 201.1 114.59 201.08 114.38 202.17 118.27 202.97 118.19 203.1 117.99 203.45 117.72 203.94 117.37 204.51 117.02 205.1 116.69 205.6 116.4 205.99 116.22 206.15 116.11 206.19 115.91 206.2 115.63 206.23 115.29 206.27 114.9 206.3 114.48 206.31 114.04 206.35 113.58 206.38 113.13 206.41 112.69 206.43 112.28 206.46 111.92 206.48 111.63 206.49 111.39 206.49 111.24 206.51 111.19 206.51 111.03 206.44 110.69 206.31 110.19 206.15 109.57 205.94 108.84 205.7 108.04 205.45 107.19 205.18 106.33 204.9 105.45 204.64 104.62 204.36 103.84 204.14 103.14 203.91 102.56 203.73 102.1 203.58 101.81 203.5 101.71 203.47 101.71 203.47"/>
    <polygon class="cls-3" points="117.18 203.68 112.51 201.86 112.22 203.08 117.18 203.68 117.18 203.68"/>
    <polygon class="cls-3" points="113.93 205.89 114.35 205.88 114.76 205.81 115.1 205.71 115.42 205.58 115.67 205.44 115.86 205.26 115.97 205.06 116.03 204.85 115.97 204.64 115.86 204.44 115.67 204.27 115.42 204.1 115.1 203.97 114.76 203.88 114.35 203.81 113.93 203.79 113.5 203.81 113.11 203.88 112.75 203.97 112.45 204.1 112.18 204.27 111.99 204.44 111.88 204.64 111.83 204.85 111.88 205.06 111.99 205.26 112.18 205.44 112.45 205.58 112.75 205.71 113.11 205.81 113.5 205.88 113.93 205.89 113.93 205.89"/>
    <polygon class="cls-3" points="103.89 203.08 105.14 203.54 104.23 202.51 103.89 203.08 103.89 203.08"/>
    <polygon class="cls-3" points="104.35 202.05 105.6 202.51 104.69 201.47 104.35 202.05 104.35 202.05"/>
    <polygon class="cls-3" points="104.91 200.9 106.17 201.36 105.26 200.35 104.91 200.9 104.91 200.9"/>
    <polygon class="cls-3" points="111.89 198.74 111.92 198.72 111.99 198.67 112.12 198.59 112.28 198.48 112.48 198.36 112.72 198.22 112.98 198.05 113.27 197.89 113.6 197.73 113.93 197.55 114.28 197.39 114.66 197.22 115.03 197.08 115.41 196.95 115.8 196.83 116.17 196.74 116.54 196.67 116.9 196.62 117.24 196.6 117.57 196.62 117.88 196.65 118.17 196.7 118.45 196.77 118.71 196.85 118.95 196.95 119.18 197.06 119.38 197.17 119.55 197.31 119.71 197.45 119.86 197.6 119.98 197.74 120.07 197.89 120.22 198.2 120.3 198.51 120.32 198.82 120.3 199.09 120.24 199.37 120.14 199.6 120.01 199.81 119.85 199.96 119.63 200.09 119.32 200.23 119 200.36 118.64 200.48 118.32 200.59 118.04 200.67 117.85 200.74 117.78 200.75 117.85 200.69 118.04 200.52 118.29 200.27 118.53 199.94 118.74 199.57 118.85 199.16 118.82 198.75 118.59 198.35 118.37 198.18 118.04 198.07 117.63 198 117.16 197.97 116.63 197.99 116.07 198.02 115.49 198.09 114.9 198.15 114.32 198.25 113.76 198.35 113.26 198.44 112.8 198.52 112.43 198.61 112.14 198.67 111.96 198.72 111.89 198.74 111.89 198.74"/>
    <polygon class="cls-3" points="123.26 200.36 123.77 200.15 124.29 199.97 124.79 199.84 125.31 199.76 125.81 199.71 126.32 199.71 126.82 199.76 127.3 199.83 127.76 199.96 128.21 200.1 128.65 200.3 129.04 200.52 129.41 200.78 129.75 201.08 130.06 201.42 130.34 201.78 130.29 201.65 130.24 201.5 130.19 201.37 130.13 201.24 129.88 200.8 129.59 200.41 129.26 200.05 128.89 199.73 128.48 199.45 128.04 199.21 127.59 199.01 127.1 198.87 126.58 198.75 126.06 198.69 125.52 198.67 124.97 198.7 124.42 198.78 123.86 198.93 123.31 199.11 122.76 199.34 122.24 199.62 121.75 199.92 121.29 200.28 120.89 200.65 120.51 201.06 120.19 201.49 119.89 201.92 119.67 202.4 119.47 202.87 119.32 203.36 119.24 203.84 119.21 204.33 119.23 204.82 119.29 205.31 119.42 205.78 119.62 206.25 119.68 206.38 119.75 206.49 119.83 206.62 119.89 206.74 119.78 206.3 119.71 205.84 119.7 205.39 119.73 204.93 119.8 204.48 119.93 204.02 120.07 203.58 120.29 203.14 120.53 202.72 120.81 202.31 121.13 201.92 121.49 201.57 121.88 201.23 122.32 200.9 122.77 200.62 123.26 200.36 123.26 200.36"/>
    <polygon class="cls-3" points="114.58 194.36 114.58 194.49 114.61 194.65 114.69 194.82 114.77 194.98 114.87 195.12 114.95 195.24 115.02 195.32 115.03 195.35 115.06 195.34 115.18 195.29 115.36 195.22 115.58 195.12 115.86 195.03 116.17 194.92 116.5 194.78 116.85 194.67 117.19 194.56 117.54 194.44 117.88 194.34 118.19 194.27 118.46 194.2 118.69 194.18 118.89 194.18 119 194.21 119.15 194.39 119.41 194.77 119.76 195.32 120.22 196.03 120.72 196.85 121.28 197.78 121.84 198.74 122.45 199.74 123.05 200.74 123.62 201.7 124.16 202.61 124.64 203.42 125.05 204.1 125.39 204.64 125.62 205 125.72 205.14 125.68 205.03 125.54 204.67 125.28 204.12 124.92 203.37 124.5 202.48 124.01 201.49 123.47 200.43 122.92 199.32 122.33 198.22 121.76 197.13 121.21 196.12 120.69 195.21 120.22 194.43 119.8 193.81 119.47 193.4 119.23 193.22 119.02 193.19 118.74 193.21 118.43 193.24 118.09 193.3 117.72 193.39 117.32 193.48 116.92 193.6 116.53 193.71 116.15 193.82 115.78 193.94 115.45 194.05 115.16 194.15 114.92 194.23 114.74 194.3 114.62 194.34 114.58 194.36 114.58 194.36"/>
    <polygon class="cls-3" points="121.81 194.67 121.67 198.1 122.72 194.98 121.81 194.67 121.81 194.67"/>
    <polygon class="cls-3" points="125.78 206.04 126.03 206.01 126.27 205.94 126.48 205.83 126.66 205.68 126.81 205.49 126.92 205.27 126.99 205.05 127.02 204.79 126.99 204.54 126.92 204.3 126.81 204.09 126.66 203.91 126.48 203.74 126.27 203.63 126.03 203.57 125.78 203.54 125.52 203.57 125.3 203.63 125.08 203.74 124.89 203.91 124.74 204.09 124.63 204.3 124.56 204.54 124.53 204.79 124.56 205.05 124.63 205.27 124.74 205.49 124.89 205.68 125.08 205.83 125.3 205.94 125.52 206.01 125.78 206.04 125.78 206.04"/>
    <polygon class="cls-3" points="111.68 201.66 111.63 201.68 111.5 201.7 111.29 201.73 111.01 201.79 110.69 201.84 110.33 201.91 109.92 201.97 109.52 202.05 109.09 202.12 108.69 202.18 108.3 202.23 107.92 202.28 107.6 202.33 107.32 202.35 107.11 202.36 106.98 202.35 106.8 202.28 106.67 202.18 106.56 202.05 106.48 201.92 106.43 201.79 106.38 201.68 106.36 201.61 106.36 201.58 111.68 201.66 111.68 201.66"/>
  </g>
</svg>